<mxfile host="65bd71144e">
    <diagram id="Z5890iHaOlJqOxT_fTK_" name="Page-1">
        <mxGraphModel dx="2839" dy="1265" grid="1" gridSize="10" guides="1" tooltips="1" connect="1" arrows="1" fold="1" page="1" pageScale="1" pageWidth="850" pageHeight="1100" math="0" shadow="0">
            <root>
                <mxCell id="0"/>
                <mxCell id="1" parent="0"/>
                <mxCell id="83" value="" style="group" parent="1" vertex="1" connectable="0">
                    <mxGeometry x="-780" y="40" width="1000" height="460" as="geometry"/>
                </mxCell>
                <mxCell id="2" value="Remote" style="shape=cylinder3;whiteSpace=wrap;html=1;boundedLbl=1;backgroundOutline=1;size=15;shadow=0;sketch=1;hachureGap=4;jiggle=2;curveFitting=1;fontFamily=Architects Daughter;fontSource=https%3A%2F%2Ffonts.googleapis.com%2Fcss%3Ffamily%3DArchitects%2BDaughter;fontSize=20;" parent="83" vertex="1">
                    <mxGeometry y="290" width="110" height="130" as="geometry"/>
                </mxCell>
                <mxCell id="3" value="Repository" style="shape=cylinder3;whiteSpace=wrap;html=1;boundedLbl=1;backgroundOutline=1;size=15;shadow=0;sketch=1;hachureGap=4;jiggle=2;curveFitting=1;fontFamily=Architects Daughter;fontSource=https%3A%2F%2Ffonts.googleapis.com%2Fcss%3Ffamily%3DArchitects%2BDaughter;fontSize=20;" parent="83" vertex="1">
                    <mxGeometry x="330" y="285" width="110" height="130" as="geometry"/>
                </mxCell>
                <mxCell id="4" value="Index" style="shape=cylinder3;whiteSpace=wrap;html=1;boundedLbl=1;backgroundOutline=1;size=15;shadow=0;sketch=1;hachureGap=4;jiggle=2;curveFitting=1;fontFamily=Architects Daughter;fontSource=https%3A%2F%2Ffonts.googleapis.com%2Fcss%3Ffamily%3DArchitects%2BDaughter;fontSize=20;" parent="83" vertex="1">
                    <mxGeometry x="580" y="290" width="80" height="100" as="geometry"/>
                </mxCell>
                <mxCell id="6" value="Stage" style="ellipse;whiteSpace=wrap;html=1;shadow=0;sketch=1;hachureGap=4;jiggle=2;curveFitting=1;fontFamily=Architects Daughter;fontSource=https%3A%2F%2Ffonts.googleapis.com%2Fcss%3Ffamily%3DArchitects%2BDaughter;fontSize=20;" parent="83" vertex="1">
                    <mxGeometry x="870" y="270" width="120" height="80" as="geometry"/>
                </mxCell>
                <mxCell id="7" value="Workspace" style="shape=note;whiteSpace=wrap;html=1;backgroundOutline=1;darkOpacity=0.05;shadow=0;sketch=1;hachureGap=4;jiggle=2;curveFitting=1;fontFamily=Architects Daughter;fontSource=https%3A%2F%2Ffonts.googleapis.com%2Fcss%3Ffamily%3DArchitects%2BDaughter;fontSize=20;" parent="83" vertex="1">
                    <mxGeometry x="730" width="160" height="140" as="geometry"/>
                </mxCell>
                <mxCell id="10" value="" style="curved=1;endArrow=classic;html=1;sketch=1;hachureGap=4;jiggle=2;curveFitting=1;fontFamily=Architects Daughter;fontSource=https%3A%2F%2Ffonts.googleapis.com%2Fcss%3Ffamily%3DArchitects%2BDaughter;fontSize=16;entryX=0;entryY=0.5;entryDx=0;entryDy=0;entryPerimeter=0;exitX=0.5;exitY=0;exitDx=0;exitDy=0;exitPerimeter=0;" parent="83" source="2" target="7" edge="1">
                    <mxGeometry width="50" height="50" relative="1" as="geometry">
                        <mxPoint x="340" y="190" as="sourcePoint"/>
                        <mxPoint x="390" y="140" as="targetPoint"/>
                        <Array as="points">
                            <mxPoint x="390" y="190"/>
                            <mxPoint x="360" y="130"/>
                        </Array>
                    </mxGeometry>
                </mxCell>
                <mxCell id="11" value="pull" style="edgeLabel;html=1;align=center;verticalAlign=middle;resizable=0;points=[];fontSize=20;fontFamily=Architects Daughter;" parent="10" vertex="1" connectable="0">
                    <mxGeometry x="-0.1001" y="23" relative="1" as="geometry">
                        <mxPoint x="13" y="-35" as="offset"/>
                    </mxGeometry>
                </mxCell>
                <mxCell id="13" value="" style="curved=1;endArrow=classic;html=1;sketch=1;hachureGap=4;jiggle=2;curveFitting=1;fontFamily=Architects Daughter;fontSource=https%3A%2F%2Ffonts.googleapis.com%2Fcss%3Ffamily%3DArchitects%2BDaughter;fontSize=16;entryX=0;entryY=0;entryDx=0;entryDy=15;entryPerimeter=0;" parent="83" target="3" edge="1">
                    <mxGeometry width="50" height="50" relative="1" as="geometry">
                        <mxPoint x="110" y="350" as="sourcePoint"/>
                        <mxPoint x="210" y="290" as="targetPoint"/>
                        <Array as="points">
                            <mxPoint x="190" y="330"/>
                            <mxPoint x="230" y="300"/>
                        </Array>
                    </mxGeometry>
                </mxCell>
                <mxCell id="68" value="fetch/clone" style="edgeLabel;html=1;align=center;verticalAlign=middle;resizable=0;points=[];fontSize=20;fontFamily=Architects Daughter;" parent="13" vertex="1" connectable="0">
                    <mxGeometry x="0.7388" relative="1" as="geometry">
                        <mxPoint x="-99" y="20" as="offset"/>
                    </mxGeometry>
                </mxCell>
                <mxCell id="27" value="" style="curved=1;endArrow=classic;html=1;sketch=1;hachureGap=4;jiggle=2;curveFitting=1;fontFamily=Architects Daughter;fontSource=https%3A%2F%2Ffonts.googleapis.com%2Fcss%3Ffamily%3DArchitects%2BDaughter;fontSize=16;exitX=-0.009;exitY=0.754;exitDx=0;exitDy=0;exitPerimeter=0;entryX=1;entryY=0;entryDx=0;entryDy=90;entryPerimeter=0;" parent="83" source="3" target="2" edge="1">
                    <mxGeometry width="50" height="50" relative="1" as="geometry">
                        <mxPoint x="200" y="430" as="sourcePoint"/>
                        <mxPoint x="250" y="380" as="targetPoint"/>
                        <Array as="points">
                            <mxPoint x="250" y="430"/>
                            <mxPoint x="200" y="380"/>
                        </Array>
                    </mxGeometry>
                </mxCell>
                <mxCell id="69" value="push" style="edgeLabel;html=1;align=center;verticalAlign=middle;resizable=0;points=[];fontSize=20;fontFamily=Architects Daughter;" parent="27" vertex="1" connectable="0">
                    <mxGeometry x="-0.7615" relative="1" as="geometry">
                        <mxPoint x="-93" as="offset"/>
                    </mxGeometry>
                </mxCell>
                <mxCell id="31" value="" style="curved=1;endArrow=classic;html=1;sketch=1;hachureGap=4;jiggle=2;curveFitting=1;fontFamily=Architects Daughter;fontSource=https%3A%2F%2Ffonts.googleapis.com%2Fcss%3Ffamily%3DArchitects%2BDaughter;fontSize=16;entryX=1;entryY=0.5;entryDx=0;entryDy=0;entryPerimeter=0;" parent="83" source="4" target="3" edge="1">
                    <mxGeometry width="50" height="50" relative="1" as="geometry">
                        <mxPoint x="490" y="400" as="sourcePoint"/>
                        <mxPoint x="540" y="350" as="targetPoint"/>
                        <Array as="points">
                            <mxPoint x="540" y="400"/>
                            <mxPoint x="490" y="350"/>
                        </Array>
                    </mxGeometry>
                </mxCell>
                <mxCell id="67" value="commit" style="edgeLabel;html=1;align=center;verticalAlign=middle;resizable=0;points=[];fontSize=20;fontFamily=Architects Daughter;" parent="31" vertex="1" connectable="0">
                    <mxGeometry x="-0.203" y="-1" relative="1" as="geometry">
                        <mxPoint x="-18" y="-17" as="offset"/>
                    </mxGeometry>
                </mxCell>
                <mxCell id="60" value="" style="curved=1;endArrow=classic;html=1;sketch=1;hachureGap=4;jiggle=2;curveFitting=1;fontFamily=Architects Daughter;fontSource=https%3A%2F%2Ffonts.googleapis.com%2Fcss%3Ffamily%3DArchitects%2BDaughter;fontSize=16;entryX=1;entryY=0;entryDx=0;entryDy=67.5;entryPerimeter=0;exitX=0.635;exitY=1.005;exitDx=0;exitDy=0;exitPerimeter=0;" parent="83" source="7" target="4" edge="1">
                    <mxGeometry width="50" height="50" relative="1" as="geometry">
                        <mxPoint x="770" y="290" as="sourcePoint"/>
                        <mxPoint x="820" y="240" as="targetPoint"/>
                        <Array as="points">
                            <mxPoint x="832" y="250"/>
                            <mxPoint x="730" y="280"/>
                        </Array>
                    </mxGeometry>
                </mxCell>
                <mxCell id="61" value="add" style="edgeLabel;html=1;align=center;verticalAlign=middle;resizable=0;points=[];fontSize=20;fontFamily=Architects Daughter;" parent="60" vertex="1" connectable="0">
                    <mxGeometry x="0.1465" y="5" relative="1" as="geometry">
                        <mxPoint as="offset"/>
                    </mxGeometry>
                </mxCell>
                <mxCell id="63" value="" style="endArrow=classic;html=1;sketch=1;hachureGap=4;jiggle=2;curveFitting=1;fontFamily=Architects Daughter;fontSource=https%3A%2F%2Ffonts.googleapis.com%2Fcss%3Ffamily%3DArchitects%2BDaughter;fontSize=16;entryX=0.25;entryY=0;entryDx=0;entryDy=0;entryPerimeter=0;exitX=0.859;exitY=1.012;exitDx=0;exitDy=0;exitPerimeter=0;" parent="83" source="7" target="6" edge="1">
                    <mxGeometry width="50" height="50" relative="1" as="geometry">
                        <mxPoint x="710" y="180" as="sourcePoint"/>
                        <mxPoint x="760" y="130" as="targetPoint"/>
                    </mxGeometry>
                </mxCell>
                <mxCell id="64" value="stash" style="edgeLabel;html=1;align=center;verticalAlign=middle;resizable=0;points=[];fontSize=20;fontFamily=Architects Daughter;" parent="63" vertex="1" connectable="0">
                    <mxGeometry x="0.1656" relative="1" as="geometry">
                        <mxPoint as="offset"/>
                    </mxGeometry>
                </mxCell>
                <mxCell id="66" value="stash apply/stash pop" style="curved=1;endArrow=classic;html=1;sketch=1;hachureGap=4;jiggle=2;curveFitting=1;fontFamily=Architects Daughter;fontSource=https%3A%2F%2Ffonts.googleapis.com%2Fcss%3Ffamily%3DArchitects%2BDaughter;fontSize=16;exitX=0.286;exitY=0.976;exitDx=0;exitDy=0;exitPerimeter=0;" parent="83" source="6" edge="1">
                    <mxGeometry width="50" height="50" relative="1" as="geometry">
                        <mxPoint x="770" y="380" as="sourcePoint"/>
                        <mxPoint x="670" y="370" as="targetPoint"/>
                        <Array as="points">
                            <mxPoint x="820" y="380"/>
                            <mxPoint x="770" y="330"/>
                        </Array>
                    </mxGeometry>
                </mxCell>
                <mxCell id="72" value="远程仓库" style="text;html=1;strokeColor=none;fillColor=none;align=center;verticalAlign=middle;whiteSpace=wrap;rounded=0;shadow=0;sketch=1;hachureGap=4;jiggle=2;curveFitting=1;fontFamily=Architects Daughter;fontSource=https%3A%2F%2Ffonts.googleapis.com%2Fcss%3Ffamily%3DArchitects%2BDaughter;fontSize=20;" parent="83" vertex="1">
                    <mxGeometry y="430" width="100" height="30" as="geometry"/>
                </mxCell>
                <mxCell id="73" value="本地仓库" style="text;html=1;strokeColor=none;fillColor=none;align=center;verticalAlign=middle;whiteSpace=wrap;rounded=0;shadow=0;sketch=1;hachureGap=4;jiggle=2;curveFitting=1;fontFamily=Architects Daughter;fontSource=https%3A%2F%2Ffonts.googleapis.com%2Fcss%3Ffamily%3DArchitects%2BDaughter;fontSize=20;" parent="83" vertex="1">
                    <mxGeometry x="335" y="430" width="100" height="30" as="geometry"/>
                </mxCell>
                <mxCell id="74" value="暂存索引区" style="text;html=1;strokeColor=none;fillColor=none;align=center;verticalAlign=middle;whiteSpace=wrap;rounded=0;shadow=0;sketch=1;hachureGap=4;jiggle=2;curveFitting=1;fontFamily=Architects Daughter;fontSource=https%3A%2F%2Ffonts.googleapis.com%2Fcss%3Ffamily%3DArchitects%2BDaughter;fontSize=20;" parent="83" vertex="1">
                    <mxGeometry x="570" y="410" width="110" height="30" as="geometry"/>
                </mxCell>
                <mxCell id="75" value="工作区" style="text;html=1;strokeColor=none;fillColor=none;align=center;verticalAlign=middle;whiteSpace=wrap;rounded=0;shadow=0;sketch=1;hachureGap=4;jiggle=2;curveFitting=1;fontFamily=Architects Daughter;fontSource=https%3A%2F%2Ffonts.googleapis.com%2Fcss%3Ffamily%3DArchitects%2BDaughter;fontSize=20;" parent="83" vertex="1">
                    <mxGeometry x="760" y="90" width="100" height="30" as="geometry"/>
                </mxCell>
                <mxCell id="76" value="暂存工作区" style="text;html=1;strokeColor=none;fillColor=none;align=center;verticalAlign=middle;whiteSpace=wrap;rounded=0;shadow=0;sketch=1;hachureGap=4;jiggle=2;curveFitting=1;fontFamily=Architects Daughter;fontSource=https%3A%2F%2Ffonts.googleapis.com%2Fcss%3Ffamily%3DArchitects%2BDaughter;fontSize=20;" parent="83" vertex="1">
                    <mxGeometry x="880" y="370" width="120" height="30" as="geometry"/>
                </mxCell>
                <mxCell id="79" value="" style="curved=1;endArrow=classic;html=1;sketch=1;hachureGap=4;jiggle=2;curveFitting=1;fontFamily=Architects Daughter;fontSource=https%3A%2F%2Ffonts.googleapis.com%2Fcss%3Ffamily%3DArchitects%2BDaughter;fontSize=16;exitX=1;exitY=0;exitDx=0;exitDy=40;exitPerimeter=0;" parent="83" source="3" target="7" edge="1">
                    <mxGeometry width="50" height="50" relative="1" as="geometry">
                        <mxPoint x="540" y="250" as="sourcePoint"/>
                        <mxPoint x="590" y="200" as="targetPoint"/>
                        <Array as="points">
                            <mxPoint x="590" y="250"/>
                            <mxPoint x="540" y="200"/>
                        </Array>
                    </mxGeometry>
                </mxCell>
                <mxCell id="80" value="checkout" style="edgeLabel;html=1;align=center;verticalAlign=middle;resizable=0;points=[];fontSize=20;fontFamily=Architects Daughter;" parent="79" vertex="1" connectable="0">
                    <mxGeometry x="-0.3699" y="10" relative="1" as="geometry">
                        <mxPoint x="8" y="-33" as="offset"/>
                    </mxGeometry>
                </mxCell>
                <mxCell id="81" value="" style="curved=1;endArrow=classic;html=1;sketch=1;hachureGap=4;jiggle=2;curveFitting=1;fontFamily=Architects Daughter;fontSource=https%3A%2F%2Ffonts.googleapis.com%2Fcss%3Ffamily%3DArchitects%2BDaughter;fontSize=16;exitX=0.978;exitY=0.075;exitDx=0;exitDy=0;exitPerimeter=0;entryX=0.184;entryY=1;entryDx=0;entryDy=0;entryPerimeter=0;" parent="83" source="4" target="7" edge="1">
                    <mxGeometry width="50" height="50" relative="1" as="geometry">
                        <mxPoint x="680" y="240" as="sourcePoint"/>
                        <mxPoint x="730" y="190" as="targetPoint"/>
                        <Array as="points">
                            <mxPoint x="730" y="240"/>
                            <mxPoint x="680" y="190"/>
                        </Array>
                    </mxGeometry>
                </mxCell>
                <mxCell id="82" value="restore" style="edgeLabel;html=1;align=center;verticalAlign=middle;resizable=0;points=[];fontSize=20;fontFamily=Architects Daughter;" parent="81" vertex="1" connectable="0">
                    <mxGeometry x="0.7338" y="-5" relative="1" as="geometry">
                        <mxPoint x="-33" y="48" as="offset"/>
                    </mxGeometry>
                </mxCell>
                <mxCell id="84" value="&lt;b&gt;GIt merge&lt;/b&gt;&amp;nbsp; &amp;nbsp;合并冲突：current incoming base" style="text;html=1;align=center;verticalAlign=middle;resizable=0;points=[];autosize=1;strokeColor=none;fillColor=none;fontSize=32;fontFamily=Architects Daughter;sketch=1;hachureGap=4;jiggle=2;curveFitting=1;fontSource=https%3A%2F%2Ffonts.googleapis.com%2Fcss%3Ffamily%3DArchitects%2BDaughter;" vertex="1" parent="1">
                    <mxGeometry x="-820" y="590" width="700" height="50" as="geometry"/>
                </mxCell>
                <mxCell id="99" value="" style="shape=flexArrow;endArrow=classic;html=1;sketch=1;hachureGap=4;jiggle=2;curveFitting=1;fontFamily=Architects Daughter;fontSource=https%3A%2F%2Ffonts.googleapis.com%2Fcss%3Ffamily%3DArchitects%2BDaughter;fontSize=32;" edge="1" parent="1">
                    <mxGeometry width="50" height="50" relative="1" as="geometry">
                        <mxPoint x="-300" y="745.9" as="sourcePoint"/>
                        <mxPoint x="-210" y="745.9" as="targetPoint"/>
                    </mxGeometry>
                </mxCell>
                <mxCell id="113" value="" style="group" vertex="1" connectable="0" parent="1">
                    <mxGeometry x="-670" y="700" width="336" height="93.33" as="geometry"/>
                </mxCell>
                <mxCell id="85" value="A" style="rounded=0;whiteSpace=wrap;html=1;sketch=1;hachureGap=4;jiggle=2;curveFitting=1;fontFamily=Architects Daughter;fontSource=https%3A%2F%2Ffonts.googleapis.com%2Fcss%3Ffamily%3DArchitects%2BDaughter;fontSize=20;" vertex="1" parent="113">
                    <mxGeometry width="56" height="27.999" as="geometry"/>
                </mxCell>
                <mxCell id="87" value="B" style="whiteSpace=wrap;html=1;fontSize=20;fontFamily=Architects Daughter;rounded=0;sketch=1;hachureGap=4;jiggle=2;curveFitting=1;fontSource=https%3A%2F%2Ffonts.googleapis.com%2Fcss%3Ffamily%3DArchitects%2BDaughter;" vertex="1" parent="113">
                    <mxGeometry x="93.33333333333334" width="56" height="27.999" as="geometry"/>
                </mxCell>
                <mxCell id="88" value="" style="edgeStyle=none;sketch=1;hachureGap=4;jiggle=2;curveFitting=1;html=1;fontFamily=Architects Daughter;fontSource=https%3A%2F%2Ffonts.googleapis.com%2Fcss%3Ffamily%3DArchitects%2BDaughter;fontSize=16;" edge="1" parent="113" source="85" target="87">
                    <mxGeometry relative="1" as="geometry"/>
                </mxCell>
                <mxCell id="89" value="C" style="whiteSpace=wrap;html=1;fontSize=20;fontFamily=Architects Daughter;rounded=0;sketch=1;hachureGap=4;jiggle=2;curveFitting=1;fontSource=https%3A%2F%2Ffonts.googleapis.com%2Fcss%3Ffamily%3DArchitects%2BDaughter;" vertex="1" parent="113">
                    <mxGeometry x="186.66666666666669" width="56" height="27.999" as="geometry"/>
                </mxCell>
                <mxCell id="90" value="" style="edgeStyle=none;sketch=1;hachureGap=4;jiggle=2;curveFitting=1;html=1;fontFamily=Architects Daughter;fontSource=https%3A%2F%2Ffonts.googleapis.com%2Fcss%3Ffamily%3DArchitects%2BDaughter;fontSize=16;" edge="1" parent="113" source="87" target="89">
                    <mxGeometry relative="1" as="geometry"/>
                </mxCell>
                <mxCell id="91" value="D" style="whiteSpace=wrap;html=1;fontSize=20;fontFamily=Architects Daughter;rounded=0;sketch=1;hachureGap=4;jiggle=2;curveFitting=1;fontSource=https%3A%2F%2Ffonts.googleapis.com%2Fcss%3Ffamily%3DArchitects%2BDaughter;" vertex="1" parent="113">
                    <mxGeometry x="280" width="56" height="27.999" as="geometry"/>
                </mxCell>
                <mxCell id="92" value="" style="edgeStyle=none;sketch=1;hachureGap=4;jiggle=2;curveFitting=1;html=1;fontFamily=Architects Daughter;fontSource=https%3A%2F%2Ffonts.googleapis.com%2Fcss%3Ffamily%3DArchitects%2BDaughter;fontSize=16;" edge="1" parent="113" source="89" target="91">
                    <mxGeometry relative="1" as="geometry"/>
                </mxCell>
                <mxCell id="93" value="E" style="whiteSpace=wrap;html=1;fontSize=20;fontFamily=Architects Daughter;rounded=0;sketch=1;hachureGap=4;jiggle=2;curveFitting=1;fontSource=https%3A%2F%2Ffonts.googleapis.com%2Fcss%3Ffamily%3DArchitects%2BDaughter;" vertex="1" parent="113">
                    <mxGeometry x="93.33333333333334" y="65.33099999999999" width="56" height="27.999" as="geometry"/>
                </mxCell>
                <mxCell id="94" value="" style="edgeStyle=none;sketch=1;hachureGap=4;jiggle=2;curveFitting=1;html=1;fontFamily=Architects Daughter;fontSource=https%3A%2F%2Ffonts.googleapis.com%2Fcss%3Ffamily%3DArchitects%2BDaughter;fontSize=16;" edge="1" parent="113" source="87" target="93">
                    <mxGeometry relative="1" as="geometry"/>
                </mxCell>
                <mxCell id="95" value="F" style="whiteSpace=wrap;html=1;fontSize=20;fontFamily=Architects Daughter;rounded=0;sketch=1;hachureGap=4;jiggle=2;curveFitting=1;fontSource=https%3A%2F%2Ffonts.googleapis.com%2Fcss%3Ffamily%3DArchitects%2BDaughter;" vertex="1" parent="113">
                    <mxGeometry x="186.66666666666669" y="65.33099999999999" width="56" height="27.999" as="geometry"/>
                </mxCell>
                <mxCell id="96" value="" style="edgeStyle=none;sketch=1;hachureGap=4;jiggle=2;curveFitting=1;html=1;fontFamily=Architects Daughter;fontSource=https%3A%2F%2Ffonts.googleapis.com%2Fcss%3Ffamily%3DArchitects%2BDaughter;fontSize=16;" edge="1" parent="113" source="93" target="95">
                    <mxGeometry relative="1" as="geometry"/>
                </mxCell>
                <mxCell id="97" value="G" style="whiteSpace=wrap;html=1;fontSize=20;fontFamily=Architects Daughter;rounded=0;sketch=1;hachureGap=4;jiggle=2;curveFitting=1;fontSource=https%3A%2F%2Ffonts.googleapis.com%2Fcss%3Ffamily%3DArchitects%2BDaughter;" vertex="1" parent="113">
                    <mxGeometry x="280" y="65.33099999999999" width="56" height="27.999" as="geometry"/>
                </mxCell>
                <mxCell id="98" value="" style="edgeStyle=none;sketch=1;hachureGap=4;jiggle=2;curveFitting=1;html=1;fontFamily=Architects Daughter;fontSource=https%3A%2F%2Ffonts.googleapis.com%2Fcss%3Ffamily%3DArchitects%2BDaughter;fontSize=16;" edge="1" parent="113" source="95" target="97">
                    <mxGeometry relative="1" as="geometry"/>
                </mxCell>
                <mxCell id="114" value="" style="group" vertex="1" connectable="0" parent="1">
                    <mxGeometry x="-180" y="690" width="336" height="93.33" as="geometry"/>
                </mxCell>
                <mxCell id="115" value="A" style="rounded=0;whiteSpace=wrap;html=1;sketch=1;hachureGap=4;jiggle=2;curveFitting=1;fontFamily=Architects Daughter;fontSource=https%3A%2F%2Ffonts.googleapis.com%2Fcss%3Ffamily%3DArchitects%2BDaughter;fontSize=20;" vertex="1" parent="114">
                    <mxGeometry width="56" height="27.999" as="geometry"/>
                </mxCell>
                <mxCell id="116" value="B" style="whiteSpace=wrap;html=1;fontSize=20;fontFamily=Architects Daughter;rounded=0;sketch=1;hachureGap=4;jiggle=2;curveFitting=1;fontSource=https%3A%2F%2Ffonts.googleapis.com%2Fcss%3Ffamily%3DArchitects%2BDaughter;" vertex="1" parent="114">
                    <mxGeometry x="93.33333333333334" width="56" height="27.999" as="geometry"/>
                </mxCell>
                <mxCell id="117" value="" style="edgeStyle=none;sketch=1;hachureGap=4;jiggle=2;curveFitting=1;html=1;fontFamily=Architects Daughter;fontSource=https%3A%2F%2Ffonts.googleapis.com%2Fcss%3Ffamily%3DArchitects%2BDaughter;fontSize=16;" edge="1" parent="114" source="115" target="116">
                    <mxGeometry relative="1" as="geometry"/>
                </mxCell>
                <mxCell id="118" value="C" style="whiteSpace=wrap;html=1;fontSize=20;fontFamily=Architects Daughter;rounded=0;sketch=1;hachureGap=4;jiggle=2;curveFitting=1;fontSource=https%3A%2F%2Ffonts.googleapis.com%2Fcss%3Ffamily%3DArchitects%2BDaughter;" vertex="1" parent="114">
                    <mxGeometry x="186.66666666666669" width="56" height="27.999" as="geometry"/>
                </mxCell>
                <mxCell id="119" value="" style="edgeStyle=none;sketch=1;hachureGap=4;jiggle=2;curveFitting=1;html=1;fontFamily=Architects Daughter;fontSource=https%3A%2F%2Ffonts.googleapis.com%2Fcss%3Ffamily%3DArchitects%2BDaughter;fontSize=16;" edge="1" parent="114" source="116" target="118">
                    <mxGeometry relative="1" as="geometry"/>
                </mxCell>
                <mxCell id="120" value="D" style="whiteSpace=wrap;html=1;fontSize=20;fontFamily=Architects Daughter;rounded=0;sketch=1;hachureGap=4;jiggle=2;curveFitting=1;fontSource=https%3A%2F%2Ffonts.googleapis.com%2Fcss%3Ffamily%3DArchitects%2BDaughter;" vertex="1" parent="114">
                    <mxGeometry x="280" width="56" height="27.999" as="geometry"/>
                </mxCell>
                <mxCell id="121" value="" style="edgeStyle=none;sketch=1;hachureGap=4;jiggle=2;curveFitting=1;html=1;fontFamily=Architects Daughter;fontSource=https%3A%2F%2Ffonts.googleapis.com%2Fcss%3Ffamily%3DArchitects%2BDaughter;fontSize=16;" edge="1" parent="114" source="118" target="120">
                    <mxGeometry relative="1" as="geometry"/>
                </mxCell>
                <mxCell id="122" value="E" style="whiteSpace=wrap;html=1;fontSize=20;fontFamily=Architects Daughter;rounded=0;sketch=1;hachureGap=4;jiggle=2;curveFitting=1;fontSource=https%3A%2F%2Ffonts.googleapis.com%2Fcss%3Ffamily%3DArchitects%2BDaughter;" vertex="1" parent="114">
                    <mxGeometry x="93.33333333333334" y="65.33099999999999" width="56" height="27.999" as="geometry"/>
                </mxCell>
                <mxCell id="123" value="" style="edgeStyle=none;sketch=1;hachureGap=4;jiggle=2;curveFitting=1;html=1;fontFamily=Architects Daughter;fontSource=https%3A%2F%2Ffonts.googleapis.com%2Fcss%3Ffamily%3DArchitects%2BDaughter;fontSize=16;" edge="1" parent="114" source="116" target="122">
                    <mxGeometry relative="1" as="geometry"/>
                </mxCell>
                <mxCell id="124" value="F" style="whiteSpace=wrap;html=1;fontSize=20;fontFamily=Architects Daughter;rounded=0;sketch=1;hachureGap=4;jiggle=2;curveFitting=1;fontSource=https%3A%2F%2Ffonts.googleapis.com%2Fcss%3Ffamily%3DArchitects%2BDaughter;" vertex="1" parent="114">
                    <mxGeometry x="186.66666666666669" y="65.33099999999999" width="56" height="27.999" as="geometry"/>
                </mxCell>
                <mxCell id="125" value="" style="edgeStyle=none;sketch=1;hachureGap=4;jiggle=2;curveFitting=1;html=1;fontFamily=Architects Daughter;fontSource=https%3A%2F%2Ffonts.googleapis.com%2Fcss%3Ffamily%3DArchitects%2BDaughter;fontSize=16;" edge="1" parent="114" source="122" target="124">
                    <mxGeometry relative="1" as="geometry"/>
                </mxCell>
                <mxCell id="128" value="" style="edgeStyle=none;sketch=1;hachureGap=4;jiggle=2;curveFitting=1;html=1;fontFamily=Architects Daughter;fontSource=https%3A%2F%2Ffonts.googleapis.com%2Fcss%3Ffamily%3DArchitects%2BDaughter;fontSize=32;" edge="1" parent="114" source="126" target="120">
                    <mxGeometry relative="1" as="geometry"/>
                </mxCell>
                <mxCell id="126" value="G" style="whiteSpace=wrap;html=1;fontSize=20;fontFamily=Architects Daughter;rounded=0;sketch=1;hachureGap=4;jiggle=2;curveFitting=1;fontSource=https%3A%2F%2Ffonts.googleapis.com%2Fcss%3Ffamily%3DArchitects%2BDaughter;" vertex="1" parent="114">
                    <mxGeometry x="280" y="65.33099999999999" width="56" height="27.999" as="geometry"/>
                </mxCell>
                <mxCell id="127" value="" style="edgeStyle=none;sketch=1;hachureGap=4;jiggle=2;curveFitting=1;html=1;fontFamily=Architects Daughter;fontSource=https%3A%2F%2Ffonts.googleapis.com%2Fcss%3Ffamily%3DArchitects%2BDaughter;fontSize=16;" edge="1" parent="114" source="124" target="126">
                    <mxGeometry relative="1" as="geometry"/>
                </mxCell>
                <mxCell id="129" value="main" style="text;html=1;strokeColor=none;fillColor=none;align=center;verticalAlign=middle;whiteSpace=wrap;rounded=0;sketch=1;hachureGap=4;jiggle=2;curveFitting=1;fontFamily=Architects Daughter;fontSource=https%3A%2F%2Ffonts.googleapis.com%2Fcss%3Ffamily%3DArchitects%2BDaughter;fontSize=22;" vertex="1" parent="1">
                    <mxGeometry x="-770" y="700" width="60" height="30" as="geometry"/>
                </mxCell>
                <mxCell id="130" value="&lt;font style=&quot;font-size: 22px;&quot;&gt;Newfeature&lt;/font&gt;" style="text;html=1;strokeColor=none;fillColor=none;align=center;verticalAlign=middle;whiteSpace=wrap;rounded=0;sketch=1;hachureGap=4;jiggle=2;curveFitting=1;fontFamily=Architects Daughter;fontSource=https%3A%2F%2Ffonts.googleapis.com%2Fcss%3Ffamily%3DArchitects%2BDaughter;fontSize=22;" vertex="1" parent="1">
                    <mxGeometry x="-770" y="763.33" width="60" height="30" as="geometry"/>
                </mxCell>
                <mxCell id="131" value="&lt;b&gt;GIt rebase&lt;/b&gt;&amp;nbsp; &amp;nbsp;pick/squash" style="text;html=1;align=center;verticalAlign=middle;resizable=0;points=[];autosize=1;strokeColor=none;fillColor=none;fontSize=32;fontFamily=Architects Daughter;sketch=1;hachureGap=4;jiggle=2;curveFitting=1;fontSource=https%3A%2F%2Ffonts.googleapis.com%2Fcss%3Ffamily%3DArchitects%2BDaughter;" vertex="1" parent="1">
                    <mxGeometry x="-815" y="860" width="390" height="50" as="geometry"/>
                </mxCell>
                <mxCell id="132" value="" style="group" vertex="1" connectable="0" parent="1">
                    <mxGeometry x="-670" y="960" width="336" height="93.33" as="geometry"/>
                </mxCell>
                <mxCell id="133" value="A" style="rounded=0;whiteSpace=wrap;html=1;sketch=1;hachureGap=4;jiggle=2;curveFitting=1;fontFamily=Architects Daughter;fontSource=https%3A%2F%2Ffonts.googleapis.com%2Fcss%3Ffamily%3DArchitects%2BDaughter;fontSize=20;" vertex="1" parent="132">
                    <mxGeometry width="56" height="27.999" as="geometry"/>
                </mxCell>
                <mxCell id="134" value="B" style="whiteSpace=wrap;html=1;fontSize=20;fontFamily=Architects Daughter;rounded=0;sketch=1;hachureGap=4;jiggle=2;curveFitting=1;fontSource=https%3A%2F%2Ffonts.googleapis.com%2Fcss%3Ffamily%3DArchitects%2BDaughter;" vertex="1" parent="132">
                    <mxGeometry x="93.33333333333334" width="56" height="27.999" as="geometry"/>
                </mxCell>
                <mxCell id="135" value="" style="edgeStyle=none;sketch=1;hachureGap=4;jiggle=2;curveFitting=1;html=1;fontFamily=Architects Daughter;fontSource=https%3A%2F%2Ffonts.googleapis.com%2Fcss%3Ffamily%3DArchitects%2BDaughter;fontSize=16;" edge="1" parent="132" source="133" target="134">
                    <mxGeometry relative="1" as="geometry"/>
                </mxCell>
                <mxCell id="136" value="C" style="whiteSpace=wrap;html=1;fontSize=20;fontFamily=Architects Daughter;rounded=0;sketch=1;hachureGap=4;jiggle=2;curveFitting=1;fontSource=https%3A%2F%2Ffonts.googleapis.com%2Fcss%3Ffamily%3DArchitects%2BDaughter;" vertex="1" parent="132">
                    <mxGeometry x="186.66666666666669" width="56" height="27.999" as="geometry"/>
                </mxCell>
                <mxCell id="137" value="" style="edgeStyle=none;sketch=1;hachureGap=4;jiggle=2;curveFitting=1;html=1;fontFamily=Architects Daughter;fontSource=https%3A%2F%2Ffonts.googleapis.com%2Fcss%3Ffamily%3DArchitects%2BDaughter;fontSize=16;" edge="1" parent="132" source="134" target="136">
                    <mxGeometry relative="1" as="geometry"/>
                </mxCell>
                <mxCell id="138" value="D" style="whiteSpace=wrap;html=1;fontSize=20;fontFamily=Architects Daughter;rounded=0;sketch=1;hachureGap=4;jiggle=2;curveFitting=1;fontSource=https%3A%2F%2Ffonts.googleapis.com%2Fcss%3Ffamily%3DArchitects%2BDaughter;" vertex="1" parent="132">
                    <mxGeometry x="280" width="56" height="27.999" as="geometry"/>
                </mxCell>
                <mxCell id="139" value="" style="edgeStyle=none;sketch=1;hachureGap=4;jiggle=2;curveFitting=1;html=1;fontFamily=Architects Daughter;fontSource=https%3A%2F%2Ffonts.googleapis.com%2Fcss%3Ffamily%3DArchitects%2BDaughter;fontSize=16;" edge="1" parent="132" source="136" target="138">
                    <mxGeometry relative="1" as="geometry"/>
                </mxCell>
                <mxCell id="140" value="E" style="whiteSpace=wrap;html=1;fontSize=20;fontFamily=Architects Daughter;rounded=0;sketch=1;hachureGap=4;jiggle=2;curveFitting=1;fontSource=https%3A%2F%2Ffonts.googleapis.com%2Fcss%3Ffamily%3DArchitects%2BDaughter;" vertex="1" parent="132">
                    <mxGeometry x="93.33333333333334" y="65.33099999999999" width="56" height="27.999" as="geometry"/>
                </mxCell>
                <mxCell id="141" value="" style="edgeStyle=none;sketch=1;hachureGap=4;jiggle=2;curveFitting=1;html=1;fontFamily=Architects Daughter;fontSource=https%3A%2F%2Ffonts.googleapis.com%2Fcss%3Ffamily%3DArchitects%2BDaughter;fontSize=16;" edge="1" parent="132" source="134" target="140">
                    <mxGeometry relative="1" as="geometry"/>
                </mxCell>
                <mxCell id="142" value="F" style="whiteSpace=wrap;html=1;fontSize=20;fontFamily=Architects Daughter;rounded=0;sketch=1;hachureGap=4;jiggle=2;curveFitting=1;fontSource=https%3A%2F%2Ffonts.googleapis.com%2Fcss%3Ffamily%3DArchitects%2BDaughter;" vertex="1" parent="132">
                    <mxGeometry x="186.66666666666669" y="65.33099999999999" width="56" height="27.999" as="geometry"/>
                </mxCell>
                <mxCell id="143" value="" style="edgeStyle=none;sketch=1;hachureGap=4;jiggle=2;curveFitting=1;html=1;fontFamily=Architects Daughter;fontSource=https%3A%2F%2Ffonts.googleapis.com%2Fcss%3Ffamily%3DArchitects%2BDaughter;fontSize=16;" edge="1" parent="132" source="140" target="142">
                    <mxGeometry relative="1" as="geometry"/>
                </mxCell>
                <mxCell id="144" value="G" style="whiteSpace=wrap;html=1;fontSize=20;fontFamily=Architects Daughter;rounded=0;sketch=1;hachureGap=4;jiggle=2;curveFitting=1;fontSource=https%3A%2F%2Ffonts.googleapis.com%2Fcss%3Ffamily%3DArchitects%2BDaughter;" vertex="1" parent="132">
                    <mxGeometry x="280" y="65.33099999999999" width="56" height="27.999" as="geometry"/>
                </mxCell>
                <mxCell id="145" value="" style="edgeStyle=none;sketch=1;hachureGap=4;jiggle=2;curveFitting=1;html=1;fontFamily=Architects Daughter;fontSource=https%3A%2F%2Ffonts.googleapis.com%2Fcss%3Ffamily%3DArchitects%2BDaughter;fontSize=16;" edge="1" parent="132" source="142" target="144">
                    <mxGeometry relative="1" as="geometry"/>
                </mxCell>
                <mxCell id="146" value="main" style="text;html=1;strokeColor=none;fillColor=none;align=center;verticalAlign=middle;whiteSpace=wrap;rounded=0;sketch=1;hachureGap=4;jiggle=2;curveFitting=1;fontFamily=Architects Daughter;fontSource=https%3A%2F%2Ffonts.googleapis.com%2Fcss%3Ffamily%3DArchitects%2BDaughter;fontSize=22;" vertex="1" parent="1">
                    <mxGeometry x="-770" y="960" width="60" height="30" as="geometry"/>
                </mxCell>
                <mxCell id="147" value="&lt;font style=&quot;font-size: 22px;&quot;&gt;Newfeature&lt;/font&gt;" style="text;html=1;strokeColor=none;fillColor=none;align=center;verticalAlign=middle;whiteSpace=wrap;rounded=0;sketch=1;hachureGap=4;jiggle=2;curveFitting=1;fontFamily=Architects Daughter;fontSource=https%3A%2F%2Ffonts.googleapis.com%2Fcss%3Ffamily%3DArchitects%2BDaughter;fontSize=22;" vertex="1" parent="1">
                    <mxGeometry x="-770" y="1023.33" width="60" height="30" as="geometry"/>
                </mxCell>
                <mxCell id="148" value="" style="shape=flexArrow;endArrow=classic;html=1;sketch=1;hachureGap=4;jiggle=2;curveFitting=1;fontFamily=Architects Daughter;fontSource=https%3A%2F%2Ffonts.googleapis.com%2Fcss%3Ffamily%3DArchitects%2BDaughter;fontSize=32;" edge="1" parent="1">
                    <mxGeometry width="50" height="50" relative="1" as="geometry">
                        <mxPoint x="-280" y="948.46" as="sourcePoint"/>
                        <mxPoint x="-190" y="948.46" as="targetPoint"/>
                    </mxGeometry>
                </mxCell>
                <mxCell id="149" value="pick" style="text;html=1;align=center;verticalAlign=middle;resizable=0;points=[];autosize=1;strokeColor=none;fillColor=none;fontSize=22;fontFamily=Architects Daughter;sketch=1;hachureGap=4;jiggle=2;curveFitting=1;fontSource=https%3A%2F%2Ffonts.googleapis.com%2Fcss%3Ffamily%3DArchitects%2BDaughter;" vertex="1" parent="1">
                    <mxGeometry x="-270" y="890" width="70" height="40" as="geometry"/>
                </mxCell>
                <mxCell id="150" value="A" style="rounded=0;whiteSpace=wrap;html=1;sketch=1;hachureGap=4;jiggle=2;curveFitting=1;fontFamily=Architects Daughter;fontSource=https%3A%2F%2Ffonts.googleapis.com%2Fcss%3Ffamily%3DArchitects%2BDaughter;fontSize=20;" vertex="1" parent="1">
                    <mxGeometry x="-160" y="930" width="56" height="27.999" as="geometry"/>
                </mxCell>
                <mxCell id="151" value="B" style="whiteSpace=wrap;html=1;fontSize=20;fontFamily=Architects Daughter;rounded=0;sketch=1;hachureGap=4;jiggle=2;curveFitting=1;fontSource=https%3A%2F%2Ffonts.googleapis.com%2Fcss%3Ffamily%3DArchitects%2BDaughter;" vertex="1" parent="1">
                    <mxGeometry x="-66.66666666666663" y="930" width="56" height="27.999" as="geometry"/>
                </mxCell>
                <mxCell id="152" value="" style="edgeStyle=none;sketch=1;hachureGap=4;jiggle=2;curveFitting=1;html=1;fontFamily=Architects Daughter;fontSource=https%3A%2F%2Ffonts.googleapis.com%2Fcss%3Ffamily%3DArchitects%2BDaughter;fontSize=16;" edge="1" parent="1" source="150" target="151">
                    <mxGeometry relative="1" as="geometry"/>
                </mxCell>
                <mxCell id="153" value="C" style="whiteSpace=wrap;html=1;fontSize=20;fontFamily=Architects Daughter;rounded=0;sketch=1;hachureGap=4;jiggle=2;curveFitting=1;fontSource=https%3A%2F%2Ffonts.googleapis.com%2Fcss%3Ffamily%3DArchitects%2BDaughter;" vertex="1" parent="1">
                    <mxGeometry x="26.666666666666686" y="930" width="56" height="27.999" as="geometry"/>
                </mxCell>
                <mxCell id="154" value="" style="edgeStyle=none;sketch=1;hachureGap=4;jiggle=2;curveFitting=1;html=1;fontFamily=Architects Daughter;fontSource=https%3A%2F%2Ffonts.googleapis.com%2Fcss%3Ffamily%3DArchitects%2BDaughter;fontSize=16;" edge="1" parent="1" source="151" target="153">
                    <mxGeometry relative="1" as="geometry"/>
                </mxCell>
                <mxCell id="162" value="" style="edgeStyle=none;sketch=1;hachureGap=4;jiggle=2;curveFitting=1;html=1;fontFamily=Architects Daughter;fontSource=https%3A%2F%2Ffonts.googleapis.com%2Fcss%3Ffamily%3DArchitects%2BDaughter;fontSize=22;" edge="1" parent="1" source="155" target="157">
                    <mxGeometry relative="1" as="geometry"/>
                </mxCell>
                <mxCell id="155" value="D" style="whiteSpace=wrap;html=1;fontSize=20;fontFamily=Architects Daughter;rounded=0;sketch=1;hachureGap=4;jiggle=2;curveFitting=1;fontSource=https%3A%2F%2Ffonts.googleapis.com%2Fcss%3Ffamily%3DArchitects%2BDaughter;" vertex="1" parent="1">
                    <mxGeometry x="120" y="930" width="56" height="27.999" as="geometry"/>
                </mxCell>
                <mxCell id="156" value="" style="edgeStyle=none;sketch=1;hachureGap=4;jiggle=2;curveFitting=1;html=1;fontFamily=Architects Daughter;fontSource=https%3A%2F%2Ffonts.googleapis.com%2Fcss%3Ffamily%3DArchitects%2BDaughter;fontSize=16;" edge="1" parent="1" source="153" target="155">
                    <mxGeometry relative="1" as="geometry"/>
                </mxCell>
                <mxCell id="157" value="E" style="whiteSpace=wrap;html=1;fontSize=20;fontFamily=Architects Daughter;rounded=0;sketch=1;hachureGap=4;jiggle=2;curveFitting=1;fontSource=https%3A%2F%2Ffonts.googleapis.com%2Fcss%3Ffamily%3DArchitects%2BDaughter;" vertex="1" parent="1">
                    <mxGeometry x="210.00333333333333" y="930.0009999999999" width="56" height="27.999" as="geometry"/>
                </mxCell>
                <mxCell id="158" value="F" style="whiteSpace=wrap;html=1;fontSize=20;fontFamily=Architects Daughter;rounded=0;sketch=1;hachureGap=4;jiggle=2;curveFitting=1;fontSource=https%3A%2F%2Ffonts.googleapis.com%2Fcss%3Ffamily%3DArchitects%2BDaughter;" vertex="1" parent="1">
                    <mxGeometry x="303.33666666666664" y="930.0009999999999" width="56" height="27.999" as="geometry"/>
                </mxCell>
                <mxCell id="159" value="" style="edgeStyle=none;sketch=1;hachureGap=4;jiggle=2;curveFitting=1;html=1;fontFamily=Architects Daughter;fontSource=https%3A%2F%2Ffonts.googleapis.com%2Fcss%3Ffamily%3DArchitects%2BDaughter;fontSize=16;" edge="1" parent="1" source="157" target="158">
                    <mxGeometry relative="1" as="geometry"/>
                </mxCell>
                <mxCell id="160" value="G" style="whiteSpace=wrap;html=1;fontSize=20;fontFamily=Architects Daughter;rounded=0;sketch=1;hachureGap=4;jiggle=2;curveFitting=1;fontSource=https%3A%2F%2Ffonts.googleapis.com%2Fcss%3Ffamily%3DArchitects%2BDaughter;" vertex="1" parent="1">
                    <mxGeometry x="396.66999999999996" y="930.0009999999999" width="56" height="27.999" as="geometry"/>
                </mxCell>
                <mxCell id="161" value="" style="edgeStyle=none;sketch=1;hachureGap=4;jiggle=2;curveFitting=1;html=1;fontFamily=Architects Daughter;fontSource=https%3A%2F%2Ffonts.googleapis.com%2Fcss%3Ffamily%3DArchitects%2BDaughter;fontSize=16;" edge="1" parent="1" source="158" target="160">
                    <mxGeometry relative="1" as="geometry"/>
                </mxCell>
                <mxCell id="168" value="" style="shape=flexArrow;endArrow=classic;html=1;sketch=1;hachureGap=4;jiggle=2;curveFitting=1;fontFamily=Architects Daughter;fontSource=https%3A%2F%2Ffonts.googleapis.com%2Fcss%3Ffamily%3DArchitects%2BDaughter;fontSize=32;" edge="1" parent="1">
                    <mxGeometry width="50" height="50" relative="1" as="geometry">
                        <mxPoint x="-280" y="1066.79" as="sourcePoint"/>
                        <mxPoint x="-190" y="1066.79" as="targetPoint"/>
                    </mxGeometry>
                </mxCell>
                <mxCell id="169" value="squash" style="text;html=1;align=center;verticalAlign=middle;resizable=0;points=[];autosize=1;strokeColor=none;fillColor=none;fontSize=22;fontFamily=Architects Daughter;sketch=1;hachureGap=4;jiggle=2;curveFitting=1;fontSource=https%3A%2F%2Ffonts.googleapis.com%2Fcss%3Ffamily%3DArchitects%2BDaughter;" vertex="1" parent="1">
                    <mxGeometry x="-280" y="1008.33" width="90" height="40" as="geometry"/>
                </mxCell>
                <mxCell id="170" value="A" style="rounded=0;whiteSpace=wrap;html=1;sketch=1;hachureGap=4;jiggle=2;curveFitting=1;fontFamily=Architects Daughter;fontSource=https%3A%2F%2Ffonts.googleapis.com%2Fcss%3Ffamily%3DArchitects%2BDaughter;fontSize=20;" vertex="1" parent="1">
                    <mxGeometry x="-170" y="1053.33" width="56" height="27.999" as="geometry"/>
                </mxCell>
                <mxCell id="171" value="B" style="whiteSpace=wrap;html=1;fontSize=20;fontFamily=Architects Daughter;rounded=0;sketch=1;hachureGap=4;jiggle=2;curveFitting=1;fontSource=https%3A%2F%2Ffonts.googleapis.com%2Fcss%3Ffamily%3DArchitects%2BDaughter;" vertex="1" parent="1">
                    <mxGeometry x="-76.66666666666663" y="1053.33" width="56" height="27.999" as="geometry"/>
                </mxCell>
                <mxCell id="172" value="" style="edgeStyle=none;sketch=1;hachureGap=4;jiggle=2;curveFitting=1;html=1;fontFamily=Architects Daughter;fontSource=https%3A%2F%2Ffonts.googleapis.com%2Fcss%3Ffamily%3DArchitects%2BDaughter;fontSize=16;" edge="1" parent="1" source="170" target="171">
                    <mxGeometry relative="1" as="geometry"/>
                </mxCell>
                <mxCell id="173" value="C" style="whiteSpace=wrap;html=1;fontSize=20;fontFamily=Architects Daughter;rounded=0;sketch=1;hachureGap=4;jiggle=2;curveFitting=1;fontSource=https%3A%2F%2Ffonts.googleapis.com%2Fcss%3Ffamily%3DArchitects%2BDaughter;" vertex="1" parent="1">
                    <mxGeometry x="16.666666666666686" y="1053.33" width="56" height="27.999" as="geometry"/>
                </mxCell>
                <mxCell id="174" value="" style="edgeStyle=none;sketch=1;hachureGap=4;jiggle=2;curveFitting=1;html=1;fontFamily=Architects Daughter;fontSource=https%3A%2F%2Ffonts.googleapis.com%2Fcss%3Ffamily%3DArchitects%2BDaughter;fontSize=16;" edge="1" parent="1" source="171" target="173">
                    <mxGeometry relative="1" as="geometry"/>
                </mxCell>
                <mxCell id="175" value="" style="edgeStyle=none;sketch=1;hachureGap=4;jiggle=2;curveFitting=1;html=1;fontFamily=Architects Daughter;fontSource=https%3A%2F%2Ffonts.googleapis.com%2Fcss%3Ffamily%3DArchitects%2BDaughter;fontSize=22;" edge="1" parent="1" source="176" target="178">
                    <mxGeometry relative="1" as="geometry"/>
                </mxCell>
                <mxCell id="176" value="D" style="whiteSpace=wrap;html=1;fontSize=20;fontFamily=Architects Daughter;rounded=0;sketch=1;hachureGap=4;jiggle=2;curveFitting=1;fontSource=https%3A%2F%2Ffonts.googleapis.com%2Fcss%3Ffamily%3DArchitects%2BDaughter;" vertex="1" parent="1">
                    <mxGeometry x="110" y="1053.33" width="56" height="27.999" as="geometry"/>
                </mxCell>
                <mxCell id="177" value="" style="edgeStyle=none;sketch=1;hachureGap=4;jiggle=2;curveFitting=1;html=1;fontFamily=Architects Daughter;fontSource=https%3A%2F%2Ffonts.googleapis.com%2Fcss%3Ffamily%3DArchitects%2BDaughter;fontSize=16;" edge="1" parent="1" source="173" target="176">
                    <mxGeometry relative="1" as="geometry"/>
                </mxCell>
                <mxCell id="178" value="EFG" style="whiteSpace=wrap;html=1;fontSize=20;fontFamily=Architects Daughter;rounded=0;sketch=1;hachureGap=4;jiggle=2;curveFitting=1;fontSource=https%3A%2F%2Ffonts.googleapis.com%2Fcss%3Ffamily%3DArchitects%2BDaughter;" vertex="1" parent="1">
                    <mxGeometry x="200.00333333333333" y="1053.331" width="56" height="27.999" as="geometry"/>
                </mxCell>
                <mxCell id="183" value="&lt;b&gt;GIt reset&lt;/b&gt;" style="text;html=1;align=center;verticalAlign=middle;resizable=0;points=[];autosize=1;strokeColor=none;fillColor=none;fontSize=32;fontFamily=Architects Daughter;sketch=1;hachureGap=4;jiggle=2;curveFitting=1;fontSource=https%3A%2F%2Ffonts.googleapis.com%2Fcss%3Ffamily%3DArchitects%2BDaughter;" vertex="1" parent="1">
                    <mxGeometry x="-810" y="1120" width="160" height="50" as="geometry"/>
                </mxCell>
                <mxCell id="184" value="A" style="rounded=0;whiteSpace=wrap;html=1;sketch=1;hachureGap=4;jiggle=2;curveFitting=1;fontFamily=Architects Daughter;fontSource=https%3A%2F%2Ffonts.googleapis.com%2Fcss%3Ffamily%3DArchitects%2BDaughter;fontSize=20;" vertex="1" parent="1">
                    <mxGeometry x="-670" y="1200" width="56" height="27.999" as="geometry"/>
                </mxCell>
                <mxCell id="185" value="B" style="whiteSpace=wrap;html=1;fontSize=20;fontFamily=Architects Daughter;rounded=0;sketch=1;hachureGap=4;jiggle=2;curveFitting=1;fontSource=https%3A%2F%2Ffonts.googleapis.com%2Fcss%3Ffamily%3DArchitects%2BDaughter;" vertex="1" parent="1">
                    <mxGeometry x="-576.6666666666666" y="1200" width="56" height="27.999" as="geometry"/>
                </mxCell>
                <mxCell id="186" value="" style="edgeStyle=none;sketch=1;hachureGap=4;jiggle=2;curveFitting=1;html=1;fontFamily=Architects Daughter;fontSource=https%3A%2F%2Ffonts.googleapis.com%2Fcss%3Ffamily%3DArchitects%2BDaughter;fontSize=16;" edge="1" parent="1" source="184" target="185">
                    <mxGeometry relative="1" as="geometry"/>
                </mxCell>
                <mxCell id="187" value="C" style="whiteSpace=wrap;html=1;fontSize=20;fontFamily=Architects Daughter;rounded=0;sketch=1;hachureGap=4;jiggle=2;curveFitting=1;fontSource=https%3A%2F%2Ffonts.googleapis.com%2Fcss%3Ffamily%3DArchitects%2BDaughter;" vertex="1" parent="1">
                    <mxGeometry x="-483.3333333333333" y="1200" width="56" height="27.999" as="geometry"/>
                </mxCell>
                <mxCell id="188" value="" style="edgeStyle=none;sketch=1;hachureGap=4;jiggle=2;curveFitting=1;html=1;fontFamily=Architects Daughter;fontSource=https%3A%2F%2Ffonts.googleapis.com%2Fcss%3Ffamily%3DArchitects%2BDaughter;fontSize=16;" edge="1" parent="1" source="185" target="187">
                    <mxGeometry relative="1" as="geometry"/>
                </mxCell>
                <mxCell id="189" value="D" style="whiteSpace=wrap;html=1;fontSize=20;fontFamily=Architects Daughter;rounded=0;sketch=1;hachureGap=4;jiggle=2;curveFitting=1;fontSource=https%3A%2F%2Ffonts.googleapis.com%2Fcss%3Ffamily%3DArchitects%2BDaughter;" vertex="1" parent="1">
                    <mxGeometry x="-390" y="1200" width="56" height="27.999" as="geometry"/>
                </mxCell>
                <mxCell id="190" value="" style="edgeStyle=none;sketch=1;hachureGap=4;jiggle=2;curveFitting=1;html=1;fontFamily=Architects Daughter;fontSource=https%3A%2F%2Ffonts.googleapis.com%2Fcss%3Ffamily%3DArchitects%2BDaughter;fontSize=16;" edge="1" parent="1" source="187" target="189">
                    <mxGeometry relative="1" as="geometry"/>
                </mxCell>
                <mxCell id="191" value="main" style="text;html=1;strokeColor=none;fillColor=none;align=center;verticalAlign=middle;whiteSpace=wrap;rounded=0;sketch=1;hachureGap=4;jiggle=2;curveFitting=1;fontFamily=Architects Daughter;fontSource=https%3A%2F%2Ffonts.googleapis.com%2Fcss%3Ffamily%3DArchitects%2BDaughter;fontSize=22;" vertex="1" parent="1">
                    <mxGeometry x="-770" y="1200" width="60" height="30" as="geometry"/>
                </mxCell>
                <mxCell id="192" value="A" style="rounded=0;whiteSpace=wrap;html=1;sketch=1;hachureGap=4;jiggle=2;curveFitting=1;fontFamily=Architects Daughter;fontSource=https%3A%2F%2Ffonts.googleapis.com%2Fcss%3Ffamily%3DArchitects%2BDaughter;fontSize=20;" vertex="1" parent="1">
                    <mxGeometry x="-50.00000000000004" y="1170" width="56" height="27.999" as="geometry"/>
                </mxCell>
                <mxCell id="193" value="B" style="whiteSpace=wrap;html=1;fontSize=20;fontFamily=Architects Daughter;rounded=0;sketch=1;hachureGap=4;jiggle=2;curveFitting=1;fontSource=https%3A%2F%2Ffonts.googleapis.com%2Fcss%3Ffamily%3DArchitects%2BDaughter;" vertex="1" parent="1">
                    <mxGeometry x="43.33333333333333" y="1170" width="56" height="27.999" as="geometry"/>
                </mxCell>
                <mxCell id="194" value="" style="edgeStyle=none;sketch=1;hachureGap=4;jiggle=2;curveFitting=1;html=1;fontFamily=Architects Daughter;fontSource=https%3A%2F%2Ffonts.googleapis.com%2Fcss%3Ffamily%3DArchitects%2BDaughter;fontSize=16;" edge="1" parent="1" source="192" target="193">
                    <mxGeometry relative="1" as="geometry"/>
                </mxCell>
                <mxCell id="195" value="C" style="whiteSpace=wrap;html=1;fontSize=20;fontFamily=Architects Daughter;rounded=0;sketch=1;hachureGap=4;jiggle=2;curveFitting=1;fontSource=https%3A%2F%2Ffonts.googleapis.com%2Fcss%3Ffamily%3DArchitects%2BDaughter;" vertex="1" parent="1">
                    <mxGeometry x="136.66666666666663" y="1170" width="56" height="27.999" as="geometry"/>
                </mxCell>
                <mxCell id="196" value="" style="edgeStyle=none;sketch=1;hachureGap=4;jiggle=2;curveFitting=1;html=1;fontFamily=Architects Daughter;fontSource=https%3A%2F%2Ffonts.googleapis.com%2Fcss%3Ffamily%3DArchitects%2BDaughter;fontSize=16;" edge="1" parent="1" source="193" target="195">
                    <mxGeometry relative="1" as="geometry"/>
                </mxCell>
                <mxCell id="197" value="D" style="whiteSpace=wrap;html=1;fontSize=20;fontFamily=Architects Daughter;rounded=0;sketch=1;hachureGap=4;jiggle=2;curveFitting=1;fontSource=https%3A%2F%2Ffonts.googleapis.com%2Fcss%3Ffamily%3DArchitects%2BDaughter;dashed=1;" vertex="1" parent="1">
                    <mxGeometry x="229.99999999999994" y="1170" width="56" height="27.999" as="geometry"/>
                </mxCell>
                <mxCell id="198" value="" style="edgeStyle=none;sketch=1;hachureGap=4;jiggle=2;curveFitting=1;html=1;fontFamily=Architects Daughter;fontSource=https%3A%2F%2Ffonts.googleapis.com%2Fcss%3Ffamily%3DArchitects%2BDaughter;fontSize=16;dashed=1;" edge="1" parent="1" source="195" target="197">
                    <mxGeometry relative="1" as="geometry"/>
                </mxCell>
                <mxCell id="199" value="main" style="text;html=1;strokeColor=none;fillColor=none;align=center;verticalAlign=middle;whiteSpace=wrap;rounded=0;sketch=1;hachureGap=4;jiggle=2;curveFitting=1;fontFamily=Architects Daughter;fontSource=https%3A%2F%2Ffonts.googleapis.com%2Fcss%3Ffamily%3DArchitects%2BDaughter;fontSize=22;" vertex="1" parent="1">
                    <mxGeometry x="-150.00000000000006" y="1170" width="60" height="30" as="geometry"/>
                </mxCell>
                <mxCell id="200" value="" style="shape=flexArrow;endArrow=classic;html=1;sketch=1;hachureGap=4;jiggle=2;curveFitting=1;fontFamily=Architects Daughter;fontSource=https%3A%2F%2Ffonts.googleapis.com%2Fcss%3Ffamily%3DArchitects%2BDaughter;fontSize=32;" edge="1" parent="1">
                    <mxGeometry width="50" height="50" relative="1" as="geometry">
                        <mxPoint x="-270" y="1190" as="sourcePoint"/>
                        <mxPoint x="-180" y="1190" as="targetPoint"/>
                    </mxGeometry>
                </mxCell>
                <mxCell id="201" value="soft" style="text;html=1;align=center;verticalAlign=middle;resizable=0;points=[];autosize=1;strokeColor=none;fillColor=none;fontSize=22;fontFamily=Architects Daughter;sketch=1;hachureGap=4;jiggle=2;curveFitting=1;fontSource=https%3A%2F%2Ffonts.googleapis.com%2Fcss%3Ffamily%3DArchitects%2BDaughter;" vertex="1" parent="1">
                    <mxGeometry x="-270" y="1150" width="70" height="40" as="geometry"/>
                </mxCell>
                <mxCell id="204" value="" style="shape=flexArrow;endArrow=classic;html=1;sketch=1;hachureGap=4;jiggle=2;curveFitting=1;fontFamily=Architects Daughter;fontSource=https%3A%2F%2Ffonts.googleapis.com%2Fcss%3Ffamily%3DArchitects%2BDaughter;fontSize=32;" edge="1" parent="1">
                    <mxGeometry width="50" height="50" relative="1" as="geometry">
                        <mxPoint x="-270" y="1260" as="sourcePoint"/>
                        <mxPoint x="-180" y="1260" as="targetPoint"/>
                    </mxGeometry>
                </mxCell>
                <mxCell id="205" value="hard" style="text;html=1;align=center;verticalAlign=middle;resizable=0;points=[];autosize=1;strokeColor=none;fillColor=none;fontSize=22;fontFamily=Architects Daughter;sketch=1;hachureGap=4;jiggle=2;curveFitting=1;fontSource=https%3A%2F%2Ffonts.googleapis.com%2Fcss%3Ffamily%3DArchitects%2BDaughter;" vertex="1" parent="1">
                    <mxGeometry x="-270" y="1220" width="70" height="40" as="geometry"/>
                </mxCell>
                <mxCell id="206" value="A" style="rounded=0;whiteSpace=wrap;html=1;sketch=1;hachureGap=4;jiggle=2;curveFitting=1;fontFamily=Architects Daughter;fontSource=https%3A%2F%2Ffonts.googleapis.com%2Fcss%3Ffamily%3DArchitects%2BDaughter;fontSize=20;" vertex="1" parent="1">
                    <mxGeometry x="-50.00000000000004" y="1250" width="56" height="27.999" as="geometry"/>
                </mxCell>
                <mxCell id="207" value="B" style="whiteSpace=wrap;html=1;fontSize=20;fontFamily=Architects Daughter;rounded=0;sketch=1;hachureGap=4;jiggle=2;curveFitting=1;fontSource=https%3A%2F%2Ffonts.googleapis.com%2Fcss%3Ffamily%3DArchitects%2BDaughter;" vertex="1" parent="1">
                    <mxGeometry x="43.33333333333333" y="1250" width="56" height="27.999" as="geometry"/>
                </mxCell>
                <mxCell id="208" value="" style="edgeStyle=none;sketch=1;hachureGap=4;jiggle=2;curveFitting=1;html=1;fontFamily=Architects Daughter;fontSource=https%3A%2F%2Ffonts.googleapis.com%2Fcss%3Ffamily%3DArchitects%2BDaughter;fontSize=16;" edge="1" parent="1" source="206" target="207">
                    <mxGeometry relative="1" as="geometry"/>
                </mxCell>
                <mxCell id="209" value="C" style="whiteSpace=wrap;html=1;fontSize=20;fontFamily=Architects Daughter;rounded=0;sketch=1;hachureGap=4;jiggle=2;curveFitting=1;fontSource=https%3A%2F%2Ffonts.googleapis.com%2Fcss%3Ffamily%3DArchitects%2BDaughter;" vertex="1" parent="1">
                    <mxGeometry x="136.66666666666663" y="1250" width="56" height="27.999" as="geometry"/>
                </mxCell>
                <mxCell id="210" value="" style="edgeStyle=none;sketch=1;hachureGap=4;jiggle=2;curveFitting=1;html=1;fontFamily=Architects Daughter;fontSource=https%3A%2F%2Ffonts.googleapis.com%2Fcss%3Ffamily%3DArchitects%2BDaughter;fontSize=16;" edge="1" parent="1" source="207" target="209">
                    <mxGeometry relative="1" as="geometry"/>
                </mxCell>
                <mxCell id="211" value="main" style="text;html=1;strokeColor=none;fillColor=none;align=center;verticalAlign=middle;whiteSpace=wrap;rounded=0;sketch=1;hachureGap=4;jiggle=2;curveFitting=1;fontFamily=Architects Daughter;fontSource=https%3A%2F%2Ffonts.googleapis.com%2Fcss%3Ffamily%3DArchitects%2BDaughter;fontSize=22;" vertex="1" parent="1">
                    <mxGeometry x="-150.00000000000006" y="1250" width="60" height="30" as="geometry"/>
                </mxCell>
                <mxCell id="212" value="&lt;b&gt;GIt revert&lt;/b&gt;" style="text;html=1;align=center;verticalAlign=middle;resizable=0;points=[];autosize=1;strokeColor=none;fillColor=none;fontSize=32;fontFamily=Architects Daughter;sketch=1;hachureGap=4;jiggle=2;curveFitting=1;fontSource=https%3A%2F%2Ffonts.googleapis.com%2Fcss%3Ffamily%3DArchitects%2BDaughter;" vertex="1" parent="1">
                    <mxGeometry x="-825" y="1310" width="180" height="50" as="geometry"/>
                </mxCell>
                <mxCell id="213" value="A" style="rounded=0;whiteSpace=wrap;html=1;sketch=1;hachureGap=4;jiggle=2;curveFitting=1;fontFamily=Architects Daughter;fontSource=https%3A%2F%2Ffonts.googleapis.com%2Fcss%3Ffamily%3DArchitects%2BDaughter;fontSize=20;" vertex="1" parent="1">
                    <mxGeometry x="-675" y="1390" width="56" height="27.999" as="geometry"/>
                </mxCell>
                <mxCell id="214" value="B" style="whiteSpace=wrap;html=1;fontSize=20;fontFamily=Architects Daughter;rounded=0;sketch=1;hachureGap=4;jiggle=2;curveFitting=1;fontSource=https%3A%2F%2Ffonts.googleapis.com%2Fcss%3Ffamily%3DArchitects%2BDaughter;" vertex="1" parent="1">
                    <mxGeometry x="-581.6666666666666" y="1390" width="56" height="27.999" as="geometry"/>
                </mxCell>
                <mxCell id="215" value="" style="edgeStyle=none;sketch=1;hachureGap=4;jiggle=2;curveFitting=1;html=1;fontFamily=Architects Daughter;fontSource=https%3A%2F%2Ffonts.googleapis.com%2Fcss%3Ffamily%3DArchitects%2BDaughter;fontSize=16;" edge="1" parent="1" source="213" target="214">
                    <mxGeometry relative="1" as="geometry"/>
                </mxCell>
                <mxCell id="216" value="C" style="whiteSpace=wrap;html=1;fontSize=20;fontFamily=Architects Daughter;rounded=0;sketch=1;hachureGap=4;jiggle=2;curveFitting=1;fontSource=https%3A%2F%2Ffonts.googleapis.com%2Fcss%3Ffamily%3DArchitects%2BDaughter;" vertex="1" parent="1">
                    <mxGeometry x="-488.3333333333333" y="1390" width="56" height="27.999" as="geometry"/>
                </mxCell>
                <mxCell id="217" value="" style="edgeStyle=none;sketch=1;hachureGap=4;jiggle=2;curveFitting=1;html=1;fontFamily=Architects Daughter;fontSource=https%3A%2F%2Ffonts.googleapis.com%2Fcss%3Ffamily%3DArchitects%2BDaughter;fontSize=16;" edge="1" parent="1" source="214" target="216">
                    <mxGeometry relative="1" as="geometry"/>
                </mxCell>
                <mxCell id="218" value="D" style="whiteSpace=wrap;html=1;fontSize=20;fontFamily=Architects Daughter;rounded=0;sketch=1;hachureGap=4;jiggle=2;curveFitting=1;fontSource=https%3A%2F%2Ffonts.googleapis.com%2Fcss%3Ffamily%3DArchitects%2BDaughter;" vertex="1" parent="1">
                    <mxGeometry x="-395" y="1390" width="56" height="27.999" as="geometry"/>
                </mxCell>
                <mxCell id="219" value="" style="edgeStyle=none;sketch=1;hachureGap=4;jiggle=2;curveFitting=1;html=1;fontFamily=Architects Daughter;fontSource=https%3A%2F%2Ffonts.googleapis.com%2Fcss%3Ffamily%3DArchitects%2BDaughter;fontSize=16;" edge="1" parent="1" source="216" target="218">
                    <mxGeometry relative="1" as="geometry"/>
                </mxCell>
                <mxCell id="220" value="main" style="text;html=1;strokeColor=none;fillColor=none;align=center;verticalAlign=middle;whiteSpace=wrap;rounded=0;sketch=1;hachureGap=4;jiggle=2;curveFitting=1;fontFamily=Architects Daughter;fontSource=https%3A%2F%2Ffonts.googleapis.com%2Fcss%3Ffamily%3DArchitects%2BDaughter;fontSize=22;" vertex="1" parent="1">
                    <mxGeometry x="-775" y="1390" width="60" height="30" as="geometry"/>
                </mxCell>
                <mxCell id="229" value="" style="shape=flexArrow;endArrow=classic;html=1;sketch=1;hachureGap=4;jiggle=2;curveFitting=1;fontFamily=Architects Daughter;fontSource=https%3A%2F%2Ffonts.googleapis.com%2Fcss%3Ffamily%3DArchitects%2BDaughter;fontSize=32;" edge="1" parent="1">
                    <mxGeometry width="50" height="50" relative="1" as="geometry">
                        <mxPoint x="-270" y="1403.23" as="sourcePoint"/>
                        <mxPoint x="-180" y="1403.23" as="targetPoint"/>
                    </mxGeometry>
                </mxCell>
                <mxCell id="239" value="A" style="rounded=0;whiteSpace=wrap;html=1;sketch=1;hachureGap=4;jiggle=2;curveFitting=1;fontFamily=Architects Daughter;fontSource=https%3A%2F%2Ffonts.googleapis.com%2Fcss%3Ffamily%3DArchitects%2BDaughter;fontSize=20;" vertex="1" parent="1">
                    <mxGeometry x="-50" y="1390" width="56" height="27.999" as="geometry"/>
                </mxCell>
                <mxCell id="240" value="B" style="whiteSpace=wrap;html=1;fontSize=20;fontFamily=Architects Daughter;rounded=0;sketch=1;hachureGap=4;jiggle=2;curveFitting=1;fontSource=https%3A%2F%2Ffonts.googleapis.com%2Fcss%3Ffamily%3DArchitects%2BDaughter;" vertex="1" parent="1">
                    <mxGeometry x="43.33333333333337" y="1390" width="56" height="27.999" as="geometry"/>
                </mxCell>
                <mxCell id="241" value="" style="edgeStyle=none;sketch=1;hachureGap=4;jiggle=2;curveFitting=1;html=1;fontFamily=Architects Daughter;fontSource=https%3A%2F%2Ffonts.googleapis.com%2Fcss%3Ffamily%3DArchitects%2BDaughter;fontSize=16;" edge="1" parent="1" source="239" target="240">
                    <mxGeometry relative="1" as="geometry"/>
                </mxCell>
                <mxCell id="242" value="C" style="whiteSpace=wrap;html=1;fontSize=20;fontFamily=Architects Daughter;rounded=0;sketch=1;hachureGap=4;jiggle=2;curveFitting=1;fontSource=https%3A%2F%2Ffonts.googleapis.com%2Fcss%3Ffamily%3DArchitects%2BDaughter;" vertex="1" parent="1">
                    <mxGeometry x="136.66666666666669" y="1390" width="56" height="27.999" as="geometry"/>
                </mxCell>
                <mxCell id="243" value="" style="edgeStyle=none;sketch=1;hachureGap=4;jiggle=2;curveFitting=1;html=1;fontFamily=Architects Daughter;fontSource=https%3A%2F%2Ffonts.googleapis.com%2Fcss%3Ffamily%3DArchitects%2BDaughter;fontSize=16;" edge="1" parent="1" source="240" target="242">
                    <mxGeometry relative="1" as="geometry"/>
                </mxCell>
                <mxCell id="250" value="" style="edgeStyle=none;sketch=1;hachureGap=4;jiggle=2;curveFitting=1;html=1;fontFamily=Architects Daughter;fontSource=https%3A%2F%2Ffonts.googleapis.com%2Fcss%3Ffamily%3DArchitects%2BDaughter;fontSize=22;" edge="1" parent="1" source="244" target="249">
                    <mxGeometry relative="1" as="geometry"/>
                </mxCell>
                <mxCell id="244" value="D" style="whiteSpace=wrap;html=1;fontSize=20;fontFamily=Architects Daughter;rounded=0;sketch=1;hachureGap=4;jiggle=2;curveFitting=1;fontSource=https%3A%2F%2Ffonts.googleapis.com%2Fcss%3Ffamily%3DArchitects%2BDaughter;" vertex="1" parent="1">
                    <mxGeometry x="230" y="1390" width="56" height="27.999" as="geometry"/>
                </mxCell>
                <mxCell id="245" value="" style="edgeStyle=none;sketch=1;hachureGap=4;jiggle=2;curveFitting=1;html=1;fontFamily=Architects Daughter;fontSource=https%3A%2F%2Ffonts.googleapis.com%2Fcss%3Ffamily%3DArchitects%2BDaughter;fontSize=16;" edge="1" parent="1" source="242" target="244">
                    <mxGeometry relative="1" as="geometry"/>
                </mxCell>
                <mxCell id="246" value="main" style="text;html=1;strokeColor=none;fillColor=none;align=center;verticalAlign=middle;whiteSpace=wrap;rounded=0;sketch=1;hachureGap=4;jiggle=2;curveFitting=1;fontFamily=Architects Daughter;fontSource=https%3A%2F%2Ffonts.googleapis.com%2Fcss%3Ffamily%3DArchitects%2BDaughter;fontSize=22;" vertex="1" parent="1">
                    <mxGeometry x="-150" y="1390" width="60" height="30" as="geometry"/>
                </mxCell>
                <mxCell id="249" value="C'" style="whiteSpace=wrap;html=1;fontSize=20;fontFamily=Architects Daughter;rounded=0;sketch=1;hachureGap=4;jiggle=2;curveFitting=1;fontSource=https%3A%2F%2Ffonts.googleapis.com%2Fcss%3Ffamily%3DArchitects%2BDaughter;" vertex="1" parent="1">
                    <mxGeometry x="330" y="1390" width="56" height="27.999" as="geometry"/>
                </mxCell>
                <mxCell id="251" value="&lt;b&gt;GIt revert&lt;/b&gt;" style="text;html=1;align=center;verticalAlign=middle;resizable=0;points=[];autosize=1;strokeColor=none;fillColor=none;fontSize=32;fontFamily=Architects Daughter;sketch=1;hachureGap=4;jiggle=2;curveFitting=1;fontSource=https%3A%2F%2Ffonts.googleapis.com%2Fcss%3Ffamily%3DArchitects%2BDaughter;" vertex="1" parent="1">
                    <mxGeometry x="-810" y="1480" width="180" height="50" as="geometry"/>
                </mxCell>
                <mxCell id="252" value="A" style="rounded=0;whiteSpace=wrap;html=1;sketch=1;hachureGap=4;jiggle=2;curveFitting=1;fontFamily=Architects Daughter;fontSource=https%3A%2F%2Ffonts.googleapis.com%2Fcss%3Ffamily%3DArchitects%2BDaughter;fontSize=20;" vertex="1" parent="1">
                    <mxGeometry x="-660" y="1560" width="56" height="27.999" as="geometry"/>
                </mxCell>
                <mxCell id="253" value="B" style="whiteSpace=wrap;html=1;fontSize=20;fontFamily=Architects Daughter;rounded=0;sketch=1;hachureGap=4;jiggle=2;curveFitting=1;fontSource=https%3A%2F%2Ffonts.googleapis.com%2Fcss%3Ffamily%3DArchitects%2BDaughter;" vertex="1" parent="1">
                    <mxGeometry x="-566.6666666666666" y="1560" width="56" height="27.999" as="geometry"/>
                </mxCell>
                <mxCell id="254" value="" style="edgeStyle=none;sketch=1;hachureGap=4;jiggle=2;curveFitting=1;html=1;fontFamily=Architects Daughter;fontSource=https%3A%2F%2Ffonts.googleapis.com%2Fcss%3Ffamily%3DArchitects%2BDaughter;fontSize=16;" edge="1" parent="1" source="252" target="253">
                    <mxGeometry relative="1" as="geometry"/>
                </mxCell>
                <mxCell id="255" value="C" style="whiteSpace=wrap;html=1;fontSize=20;fontFamily=Architects Daughter;rounded=0;sketch=1;hachureGap=4;jiggle=2;curveFitting=1;fontSource=https%3A%2F%2Ffonts.googleapis.com%2Fcss%3Ffamily%3DArchitects%2BDaughter;" vertex="1" parent="1">
                    <mxGeometry x="-473.3333333333333" y="1560" width="56" height="27.999" as="geometry"/>
                </mxCell>
                <mxCell id="256" value="" style="edgeStyle=none;sketch=1;hachureGap=4;jiggle=2;curveFitting=1;html=1;fontFamily=Architects Daughter;fontSource=https%3A%2F%2Ffonts.googleapis.com%2Fcss%3Ffamily%3DArchitects%2BDaughter;fontSize=16;" edge="1" parent="1" source="253" target="255">
                    <mxGeometry relative="1" as="geometry"/>
                </mxCell>
                <mxCell id="257" value="D" style="whiteSpace=wrap;html=1;fontSize=20;fontFamily=Architects Daughter;rounded=0;sketch=1;hachureGap=4;jiggle=2;curveFitting=1;fontSource=https%3A%2F%2Ffonts.googleapis.com%2Fcss%3Ffamily%3DArchitects%2BDaughter;" vertex="1" parent="1">
                    <mxGeometry x="-380" y="1560" width="56" height="27.999" as="geometry"/>
                </mxCell>
                <mxCell id="258" value="" style="edgeStyle=none;sketch=1;hachureGap=4;jiggle=2;curveFitting=1;html=1;fontFamily=Architects Daughter;fontSource=https%3A%2F%2Ffonts.googleapis.com%2Fcss%3Ffamily%3DArchitects%2BDaughter;fontSize=16;" edge="1" parent="1" source="255" target="257">
                    <mxGeometry relative="1" as="geometry"/>
                </mxCell>
                <mxCell id="259" value="main" style="text;html=1;strokeColor=none;fillColor=none;align=center;verticalAlign=middle;whiteSpace=wrap;rounded=0;sketch=1;hachureGap=4;jiggle=2;curveFitting=1;fontFamily=Architects Daughter;fontSource=https%3A%2F%2Ffonts.googleapis.com%2Fcss%3Ffamily%3DArchitects%2BDaughter;fontSize=22;" vertex="1" parent="1">
                    <mxGeometry x="-760" y="1560" width="60" height="30" as="geometry"/>
                </mxCell>
                <mxCell id="260" value="" style="shape=flexArrow;endArrow=classic;html=1;sketch=1;hachureGap=4;jiggle=2;curveFitting=1;fontFamily=Architects Daughter;fontSource=https%3A%2F%2Ffonts.googleapis.com%2Fcss%3Ffamily%3DArchitects%2BDaughter;fontSize=32;" edge="1" parent="1">
                    <mxGeometry width="50" height="50" relative="1" as="geometry">
                        <mxPoint x="-255" y="1573.23" as="sourcePoint"/>
                        <mxPoint x="-165" y="1573.23" as="targetPoint"/>
                    </mxGeometry>
                </mxCell>
                <mxCell id="261" value="A" style="rounded=0;whiteSpace=wrap;html=1;sketch=1;hachureGap=4;jiggle=2;curveFitting=1;fontFamily=Architects Daughter;fontSource=https%3A%2F%2Ffonts.googleapis.com%2Fcss%3Ffamily%3DArchitects%2BDaughter;fontSize=20;" vertex="1" parent="1">
                    <mxGeometry x="-35" y="1560" width="56" height="27.999" as="geometry"/>
                </mxCell>
                <mxCell id="262" value="B" style="whiteSpace=wrap;html=1;fontSize=20;fontFamily=Architects Daughter;rounded=0;sketch=1;hachureGap=4;jiggle=2;curveFitting=1;fontSource=https%3A%2F%2Ffonts.googleapis.com%2Fcss%3Ffamily%3DArchitects%2BDaughter;" vertex="1" parent="1">
                    <mxGeometry x="58.33333333333337" y="1560" width="56" height="27.999" as="geometry"/>
                </mxCell>
                <mxCell id="263" value="" style="edgeStyle=none;sketch=1;hachureGap=4;jiggle=2;curveFitting=1;html=1;fontFamily=Architects Daughter;fontSource=https%3A%2F%2Ffonts.googleapis.com%2Fcss%3Ffamily%3DArchitects%2BDaughter;fontSize=16;" edge="1" parent="1" source="261" target="262">
                    <mxGeometry relative="1" as="geometry"/>
                </mxCell>
                <mxCell id="264" value="C" style="whiteSpace=wrap;html=1;fontSize=20;fontFamily=Architects Daughter;rounded=0;sketch=1;hachureGap=4;jiggle=2;curveFitting=1;fontSource=https%3A%2F%2Ffonts.googleapis.com%2Fcss%3Ffamily%3DArchitects%2BDaughter;" vertex="1" parent="1">
                    <mxGeometry x="151.66666666666669" y="1560" width="56" height="27.999" as="geometry"/>
                </mxCell>
                <mxCell id="265" value="" style="edgeStyle=none;sketch=1;hachureGap=4;jiggle=2;curveFitting=1;html=1;fontFamily=Architects Daughter;fontSource=https%3A%2F%2Ffonts.googleapis.com%2Fcss%3Ffamily%3DArchitects%2BDaughter;fontSize=16;" edge="1" parent="1" source="262" target="264">
                    <mxGeometry relative="1" as="geometry"/>
                </mxCell>
                <mxCell id="266" value="" style="edgeStyle=none;sketch=1;hachureGap=4;jiggle=2;curveFitting=1;html=1;fontFamily=Architects Daughter;fontSource=https%3A%2F%2Ffonts.googleapis.com%2Fcss%3Ffamily%3DArchitects%2BDaughter;fontSize=22;" edge="1" parent="1" source="267" target="270">
                    <mxGeometry relative="1" as="geometry"/>
                </mxCell>
                <mxCell id="267" value="D" style="whiteSpace=wrap;html=1;fontSize=20;fontFamily=Architects Daughter;rounded=0;sketch=1;hachureGap=4;jiggle=2;curveFitting=1;fontSource=https%3A%2F%2Ffonts.googleapis.com%2Fcss%3Ffamily%3DArchitects%2BDaughter;" vertex="1" parent="1">
                    <mxGeometry x="245" y="1560" width="56" height="27.999" as="geometry"/>
                </mxCell>
                <mxCell id="268" value="" style="edgeStyle=none;sketch=1;hachureGap=4;jiggle=2;curveFitting=1;html=1;fontFamily=Architects Daughter;fontSource=https%3A%2F%2Ffonts.googleapis.com%2Fcss%3Ffamily%3DArchitects%2BDaughter;fontSize=16;" edge="1" parent="1" source="264" target="267">
                    <mxGeometry relative="1" as="geometry"/>
                </mxCell>
                <mxCell id="269" value="main" style="text;html=1;strokeColor=none;fillColor=none;align=center;verticalAlign=middle;whiteSpace=wrap;rounded=0;sketch=1;hachureGap=4;jiggle=2;curveFitting=1;fontFamily=Architects Daughter;fontSource=https%3A%2F%2Ffonts.googleapis.com%2Fcss%3Ffamily%3DArchitects%2BDaughter;fontSize=22;" vertex="1" parent="1">
                    <mxGeometry x="-135" y="1560" width="60" height="30" as="geometry"/>
                </mxCell>
                <mxCell id="270" value="C'" style="whiteSpace=wrap;html=1;fontSize=20;fontFamily=Architects Daughter;rounded=0;sketch=1;hachureGap=4;jiggle=2;curveFitting=1;fontSource=https%3A%2F%2Ffonts.googleapis.com%2Fcss%3Ffamily%3DArchitects%2BDaughter;" vertex="1" parent="1">
                    <mxGeometry x="345" y="1560" width="56" height="27.999" as="geometry"/>
                </mxCell>
                <mxCell id="271" value="&lt;b&gt;GIt cherry-pick&lt;/b&gt;" style="text;html=1;align=center;verticalAlign=middle;resizable=0;points=[];autosize=1;strokeColor=none;fillColor=none;fontSize=32;fontFamily=Architects Daughter;sketch=1;hachureGap=4;jiggle=2;curveFitting=1;fontSource=https%3A%2F%2Ffonts.googleapis.com%2Fcss%3Ffamily%3DArchitects%2BDaughter;" vertex="1" parent="1">
                    <mxGeometry x="-839" y="1650" width="260" height="50" as="geometry"/>
                </mxCell>
                <mxCell id="288" value="" style="group" vertex="1" connectable="0" parent="1">
                    <mxGeometry x="-650" y="1740" width="336" height="93.33" as="geometry"/>
                </mxCell>
                <mxCell id="289" value="A" style="rounded=0;whiteSpace=wrap;html=1;sketch=1;hachureGap=4;jiggle=2;curveFitting=1;fontFamily=Architects Daughter;fontSource=https%3A%2F%2Ffonts.googleapis.com%2Fcss%3Ffamily%3DArchitects%2BDaughter;fontSize=20;" vertex="1" parent="288">
                    <mxGeometry width="56" height="27.999" as="geometry"/>
                </mxCell>
                <mxCell id="290" value="B" style="whiteSpace=wrap;html=1;fontSize=20;fontFamily=Architects Daughter;rounded=0;sketch=1;hachureGap=4;jiggle=2;curveFitting=1;fontSource=https%3A%2F%2Ffonts.googleapis.com%2Fcss%3Ffamily%3DArchitects%2BDaughter;" vertex="1" parent="288">
                    <mxGeometry x="93.33333333333334" width="56" height="27.999" as="geometry"/>
                </mxCell>
                <mxCell id="291" value="" style="edgeStyle=none;sketch=1;hachureGap=4;jiggle=2;curveFitting=1;html=1;fontFamily=Architects Daughter;fontSource=https%3A%2F%2Ffonts.googleapis.com%2Fcss%3Ffamily%3DArchitects%2BDaughter;fontSize=16;" edge="1" parent="288" source="289" target="290">
                    <mxGeometry relative="1" as="geometry"/>
                </mxCell>
                <mxCell id="292" value="C" style="whiteSpace=wrap;html=1;fontSize=20;fontFamily=Architects Daughter;rounded=0;sketch=1;hachureGap=4;jiggle=2;curveFitting=1;fontSource=https%3A%2F%2Ffonts.googleapis.com%2Fcss%3Ffamily%3DArchitects%2BDaughter;" vertex="1" parent="288">
                    <mxGeometry x="186.66666666666669" width="56" height="27.999" as="geometry"/>
                </mxCell>
                <mxCell id="293" value="" style="edgeStyle=none;sketch=1;hachureGap=4;jiggle=2;curveFitting=1;html=1;fontFamily=Architects Daughter;fontSource=https%3A%2F%2Ffonts.googleapis.com%2Fcss%3Ffamily%3DArchitects%2BDaughter;fontSize=16;" edge="1" parent="288" source="290" target="292">
                    <mxGeometry relative="1" as="geometry"/>
                </mxCell>
                <mxCell id="294" value="D" style="whiteSpace=wrap;html=1;fontSize=20;fontFamily=Architects Daughter;rounded=0;sketch=1;hachureGap=4;jiggle=2;curveFitting=1;fontSource=https%3A%2F%2Ffonts.googleapis.com%2Fcss%3Ffamily%3DArchitects%2BDaughter;" vertex="1" parent="288">
                    <mxGeometry x="280" width="56" height="27.999" as="geometry"/>
                </mxCell>
                <mxCell id="295" value="" style="edgeStyle=none;sketch=1;hachureGap=4;jiggle=2;curveFitting=1;html=1;fontFamily=Architects Daughter;fontSource=https%3A%2F%2Ffonts.googleapis.com%2Fcss%3Ffamily%3DArchitects%2BDaughter;fontSize=16;" edge="1" parent="288" source="292" target="294">
                    <mxGeometry relative="1" as="geometry"/>
                </mxCell>
                <mxCell id="296" value="E" style="whiteSpace=wrap;html=1;fontSize=20;fontFamily=Architects Daughter;rounded=0;sketch=1;hachureGap=4;jiggle=2;curveFitting=1;fontSource=https%3A%2F%2Ffonts.googleapis.com%2Fcss%3Ffamily%3DArchitects%2BDaughter;" vertex="1" parent="288">
                    <mxGeometry x="93.33333333333334" y="65.33099999999999" width="56" height="27.999" as="geometry"/>
                </mxCell>
                <mxCell id="297" value="" style="edgeStyle=none;sketch=1;hachureGap=4;jiggle=2;curveFitting=1;html=1;fontFamily=Architects Daughter;fontSource=https%3A%2F%2Ffonts.googleapis.com%2Fcss%3Ffamily%3DArchitects%2BDaughter;fontSize=16;" edge="1" parent="288" source="290" target="296">
                    <mxGeometry relative="1" as="geometry"/>
                </mxCell>
                <mxCell id="298" value="F" style="whiteSpace=wrap;html=1;fontSize=20;fontFamily=Architects Daughter;rounded=0;sketch=1;hachureGap=4;jiggle=2;curveFitting=1;fontSource=https%3A%2F%2Ffonts.googleapis.com%2Fcss%3Ffamily%3DArchitects%2BDaughter;" vertex="1" parent="288">
                    <mxGeometry x="186.66666666666669" y="65.33099999999999" width="56" height="27.999" as="geometry"/>
                </mxCell>
                <mxCell id="299" value="" style="edgeStyle=none;sketch=1;hachureGap=4;jiggle=2;curveFitting=1;html=1;fontFamily=Architects Daughter;fontSource=https%3A%2F%2Ffonts.googleapis.com%2Fcss%3Ffamily%3DArchitects%2BDaughter;fontSize=16;" edge="1" parent="288" source="296" target="298">
                    <mxGeometry relative="1" as="geometry"/>
                </mxCell>
                <mxCell id="300" value="G" style="whiteSpace=wrap;html=1;fontSize=20;fontFamily=Architects Daughter;rounded=0;sketch=1;hachureGap=4;jiggle=2;curveFitting=1;fontSource=https%3A%2F%2Ffonts.googleapis.com%2Fcss%3Ffamily%3DArchitects%2BDaughter;" vertex="1" parent="288">
                    <mxGeometry x="280" y="65.33099999999999" width="56" height="27.999" as="geometry"/>
                </mxCell>
                <mxCell id="301" value="" style="edgeStyle=none;sketch=1;hachureGap=4;jiggle=2;curveFitting=1;html=1;fontFamily=Architects Daughter;fontSource=https%3A%2F%2Ffonts.googleapis.com%2Fcss%3Ffamily%3DArchitects%2BDaughter;fontSize=16;" edge="1" parent="288" source="298" target="300">
                    <mxGeometry relative="1" as="geometry"/>
                </mxCell>
                <mxCell id="302" value="main" style="text;html=1;strokeColor=none;fillColor=none;align=center;verticalAlign=middle;whiteSpace=wrap;rounded=0;sketch=1;hachureGap=4;jiggle=2;curveFitting=1;fontFamily=Architects Daughter;fontSource=https%3A%2F%2Ffonts.googleapis.com%2Fcss%3Ffamily%3DArchitects%2BDaughter;fontSize=22;" vertex="1" parent="1">
                    <mxGeometry x="-750" y="1740" width="60" height="30" as="geometry"/>
                </mxCell>
                <mxCell id="303" value="&lt;font style=&quot;font-size: 22px;&quot;&gt;Newfeature&lt;/font&gt;" style="text;html=1;strokeColor=none;fillColor=none;align=center;verticalAlign=middle;whiteSpace=wrap;rounded=0;sketch=1;hachureGap=4;jiggle=2;curveFitting=1;fontFamily=Architects Daughter;fontSource=https%3A%2F%2Ffonts.googleapis.com%2Fcss%3Ffamily%3DArchitects%2BDaughter;fontSize=22;" vertex="1" parent="1">
                    <mxGeometry x="-750" y="1803.33" width="60" height="30" as="geometry"/>
                </mxCell>
                <mxCell id="304" value="" style="shape=flexArrow;endArrow=classic;html=1;sketch=1;hachureGap=4;jiggle=2;curveFitting=1;fontFamily=Architects Daughter;fontSource=https%3A%2F%2Ffonts.googleapis.com%2Fcss%3Ffamily%3DArchitects%2BDaughter;fontSize=32;" edge="1" parent="1">
                    <mxGeometry width="50" height="50" relative="1" as="geometry">
                        <mxPoint x="-260" y="1785.76" as="sourcePoint"/>
                        <mxPoint x="-170" y="1785.76" as="targetPoint"/>
                    </mxGeometry>
                </mxCell>
                <mxCell id="305" value="" style="group" vertex="1" connectable="0" parent="1">
                    <mxGeometry y="1750" width="336" height="93.33" as="geometry"/>
                </mxCell>
                <mxCell id="306" value="A" style="rounded=0;whiteSpace=wrap;html=1;sketch=1;hachureGap=4;jiggle=2;curveFitting=1;fontFamily=Architects Daughter;fontSource=https%3A%2F%2Ffonts.googleapis.com%2Fcss%3Ffamily%3DArchitects%2BDaughter;fontSize=20;" vertex="1" parent="305">
                    <mxGeometry width="56" height="27.999" as="geometry"/>
                </mxCell>
                <mxCell id="307" value="B" style="whiteSpace=wrap;html=1;fontSize=20;fontFamily=Architects Daughter;rounded=0;sketch=1;hachureGap=4;jiggle=2;curveFitting=1;fontSource=https%3A%2F%2Ffonts.googleapis.com%2Fcss%3Ffamily%3DArchitects%2BDaughter;" vertex="1" parent="305">
                    <mxGeometry x="93.33333333333334" width="56" height="27.999" as="geometry"/>
                </mxCell>
                <mxCell id="308" value="" style="edgeStyle=none;sketch=1;hachureGap=4;jiggle=2;curveFitting=1;html=1;fontFamily=Architects Daughter;fontSource=https%3A%2F%2Ffonts.googleapis.com%2Fcss%3Ffamily%3DArchitects%2BDaughter;fontSize=16;" edge="1" parent="305" source="306" target="307">
                    <mxGeometry relative="1" as="geometry"/>
                </mxCell>
                <mxCell id="309" value="C" style="whiteSpace=wrap;html=1;fontSize=20;fontFamily=Architects Daughter;rounded=0;sketch=1;hachureGap=4;jiggle=2;curveFitting=1;fontSource=https%3A%2F%2Ffonts.googleapis.com%2Fcss%3Ffamily%3DArchitects%2BDaughter;" vertex="1" parent="305">
                    <mxGeometry x="186.66666666666669" width="56" height="27.999" as="geometry"/>
                </mxCell>
                <mxCell id="310" value="" style="edgeStyle=none;sketch=1;hachureGap=4;jiggle=2;curveFitting=1;html=1;fontFamily=Architects Daughter;fontSource=https%3A%2F%2Ffonts.googleapis.com%2Fcss%3Ffamily%3DArchitects%2BDaughter;fontSize=16;" edge="1" parent="305" source="307" target="309">
                    <mxGeometry relative="1" as="geometry"/>
                </mxCell>
                <mxCell id="311" value="D" style="whiteSpace=wrap;html=1;fontSize=20;fontFamily=Architects Daughter;rounded=0;sketch=1;hachureGap=4;jiggle=2;curveFitting=1;fontSource=https%3A%2F%2Ffonts.googleapis.com%2Fcss%3Ffamily%3DArchitects%2BDaughter;" vertex="1" parent="305">
                    <mxGeometry x="280" width="56" height="27.999" as="geometry"/>
                </mxCell>
                <mxCell id="312" value="" style="edgeStyle=none;sketch=1;hachureGap=4;jiggle=2;curveFitting=1;html=1;fontFamily=Architects Daughter;fontSource=https%3A%2F%2Ffonts.googleapis.com%2Fcss%3Ffamily%3DArchitects%2BDaughter;fontSize=16;" edge="1" parent="305" source="309" target="311">
                    <mxGeometry relative="1" as="geometry"/>
                </mxCell>
                <mxCell id="313" value="E" style="whiteSpace=wrap;html=1;fontSize=20;fontFamily=Architects Daughter;rounded=0;sketch=1;hachureGap=4;jiggle=2;curveFitting=1;fontSource=https%3A%2F%2Ffonts.googleapis.com%2Fcss%3Ffamily%3DArchitects%2BDaughter;" vertex="1" parent="305">
                    <mxGeometry x="93.33333333333334" y="65.33099999999999" width="56" height="27.999" as="geometry"/>
                </mxCell>
                <mxCell id="314" value="" style="edgeStyle=none;sketch=1;hachureGap=4;jiggle=2;curveFitting=1;html=1;fontFamily=Architects Daughter;fontSource=https%3A%2F%2Ffonts.googleapis.com%2Fcss%3Ffamily%3DArchitects%2BDaughter;fontSize=16;" edge="1" parent="305" source="307" target="313">
                    <mxGeometry relative="1" as="geometry"/>
                </mxCell>
                <mxCell id="315" value="F" style="whiteSpace=wrap;html=1;fontSize=20;fontFamily=Architects Daughter;rounded=0;sketch=1;hachureGap=4;jiggle=2;curveFitting=1;fontSource=https%3A%2F%2Ffonts.googleapis.com%2Fcss%3Ffamily%3DArchitects%2BDaughter;" vertex="1" parent="305">
                    <mxGeometry x="186.66666666666669" y="65.33099999999999" width="56" height="27.999" as="geometry"/>
                </mxCell>
                <mxCell id="316" value="" style="edgeStyle=none;sketch=1;hachureGap=4;jiggle=2;curveFitting=1;html=1;fontFamily=Architects Daughter;fontSource=https%3A%2F%2Ffonts.googleapis.com%2Fcss%3Ffamily%3DArchitects%2BDaughter;fontSize=16;" edge="1" parent="305" source="313" target="315">
                    <mxGeometry relative="1" as="geometry"/>
                </mxCell>
                <mxCell id="317" value="G" style="whiteSpace=wrap;html=1;fontSize=20;fontFamily=Architects Daughter;rounded=0;sketch=1;hachureGap=4;jiggle=2;curveFitting=1;fontSource=https%3A%2F%2Ffonts.googleapis.com%2Fcss%3Ffamily%3DArchitects%2BDaughter;" vertex="1" parent="305">
                    <mxGeometry x="280" y="65.33099999999999" width="56" height="27.999" as="geometry"/>
                </mxCell>
                <mxCell id="318" value="" style="edgeStyle=none;sketch=1;hachureGap=4;jiggle=2;curveFitting=1;html=1;fontFamily=Architects Daughter;fontSource=https%3A%2F%2Ffonts.googleapis.com%2Fcss%3Ffamily%3DArchitects%2BDaughter;fontSize=16;" edge="1" parent="305" source="315" target="317">
                    <mxGeometry relative="1" as="geometry"/>
                </mxCell>
                <mxCell id="319" value="main" style="text;html=1;strokeColor=none;fillColor=none;align=center;verticalAlign=middle;whiteSpace=wrap;rounded=0;sketch=1;hachureGap=4;jiggle=2;curveFitting=1;fontFamily=Architects Daughter;fontSource=https%3A%2F%2Ffonts.googleapis.com%2Fcss%3Ffamily%3DArchitects%2BDaughter;fontSize=22;" vertex="1" parent="1">
                    <mxGeometry x="-100" y="1750" width="60" height="30" as="geometry"/>
                </mxCell>
                <mxCell id="320" value="&lt;font style=&quot;font-size: 22px;&quot;&gt;Newfeature&lt;/font&gt;" style="text;html=1;strokeColor=none;fillColor=none;align=center;verticalAlign=middle;whiteSpace=wrap;rounded=0;sketch=1;hachureGap=4;jiggle=2;curveFitting=1;fontFamily=Architects Daughter;fontSource=https%3A%2F%2Ffonts.googleapis.com%2Fcss%3Ffamily%3DArchitects%2BDaughter;fontSize=22;" vertex="1" parent="1">
                    <mxGeometry x="-100" y="1813.33" width="60" height="30" as="geometry"/>
                </mxCell>
                <mxCell id="321" value="G" style="whiteSpace=wrap;html=1;fontSize=20;fontFamily=Architects Daughter;rounded=0;sketch=1;hachureGap=4;jiggle=2;curveFitting=1;fontSource=https%3A%2F%2Ffonts.googleapis.com%2Fcss%3Ffamily%3DArchitects%2BDaughter;" vertex="1" parent="1">
                    <mxGeometry x="390" y="1751" width="56" height="27.999" as="geometry"/>
                </mxCell>
                <mxCell id="322" value="" style="edgeStyle=none;sketch=1;hachureGap=4;jiggle=2;curveFitting=1;html=1;fontFamily=Architects Daughter;fontSource=https%3A%2F%2Ffonts.googleapis.com%2Fcss%3Ffamily%3DArchitects%2BDaughter;fontSize=22;" edge="1" parent="1" source="311" target="321">
                    <mxGeometry relative="1" as="geometry"/>
                </mxCell>
                <mxCell id="324" value="cherry-pick G" style="text;html=1;align=center;verticalAlign=middle;resizable=0;points=[];autosize=1;strokeColor=none;fillColor=none;fontSize=22;fontFamily=Architects Daughter;sketch=1;hachureGap=4;jiggle=2;curveFitting=1;fontSource=https%3A%2F%2Ffonts.googleapis.com%2Fcss%3Ffamily%3DArchitects%2BDaughter;" vertex="1" parent="1">
                    <mxGeometry x="-300" y="1730" width="170" height="40" as="geometry"/>
                </mxCell>
                <mxCell id="325" value="A" style="rounded=0;whiteSpace=wrap;html=1;sketch=1;hachureGap=4;jiggle=2;curveFitting=1;fontFamily=Architects Daughter;fontSource=https%3A%2F%2Ffonts.googleapis.com%2Fcss%3Ffamily%3DArchitects%2BDaughter;fontSize=20;" vertex="1" parent="1">
                    <mxGeometry x="-675" y="1920" width="56" height="27.999" as="geometry"/>
                </mxCell>
                <mxCell id="326" value="B" style="whiteSpace=wrap;html=1;fontSize=20;fontFamily=Architects Daughter;rounded=0;sketch=1;hachureGap=4;jiggle=2;curveFitting=1;fontSource=https%3A%2F%2Ffonts.googleapis.com%2Fcss%3Ffamily%3DArchitects%2BDaughter;" vertex="1" parent="1">
                    <mxGeometry x="-581.6666666666666" y="1920" width="56" height="27.999" as="geometry"/>
                </mxCell>
                <mxCell id="327" value="" style="edgeStyle=none;sketch=1;hachureGap=4;jiggle=2;curveFitting=1;html=1;fontFamily=Architects Daughter;fontSource=https%3A%2F%2Ffonts.googleapis.com%2Fcss%3Ffamily%3DArchitects%2BDaughter;fontSize=16;" edge="1" parent="1" source="325" target="326">
                    <mxGeometry relative="1" as="geometry"/>
                </mxCell>
                <mxCell id="328" value="C" style="whiteSpace=wrap;html=1;fontSize=20;fontFamily=Architects Daughter;rounded=0;sketch=1;hachureGap=4;jiggle=2;curveFitting=1;fontSource=https%3A%2F%2Ffonts.googleapis.com%2Fcss%3Ffamily%3DArchitects%2BDaughter;" vertex="1" parent="1">
                    <mxGeometry x="-488.3333333333333" y="1920" width="56" height="27.999" as="geometry"/>
                </mxCell>
                <mxCell id="329" value="" style="edgeStyle=none;sketch=1;hachureGap=4;jiggle=2;curveFitting=1;html=1;fontFamily=Architects Daughter;fontSource=https%3A%2F%2Ffonts.googleapis.com%2Fcss%3Ffamily%3DArchitects%2BDaughter;fontSize=16;" edge="1" parent="1" source="326" target="328">
                    <mxGeometry relative="1" as="geometry"/>
                </mxCell>
                <mxCell id="330" value="D" style="whiteSpace=wrap;html=1;fontSize=20;fontFamily=Architects Daughter;rounded=0;sketch=1;hachureGap=4;jiggle=2;curveFitting=1;fontSource=https%3A%2F%2Ffonts.googleapis.com%2Fcss%3Ffamily%3DArchitects%2BDaughter;" vertex="1" parent="1">
                    <mxGeometry x="-395" y="1920" width="56" height="27.999" as="geometry"/>
                </mxCell>
                <mxCell id="331" value="" style="edgeStyle=none;sketch=1;hachureGap=4;jiggle=2;curveFitting=1;html=1;fontFamily=Architects Daughter;fontSource=https%3A%2F%2Ffonts.googleapis.com%2Fcss%3Ffamily%3DArchitects%2BDaughter;fontSize=16;" edge="1" parent="1" source="328" target="330">
                    <mxGeometry relative="1" as="geometry"/>
                </mxCell>
                <mxCell id="333" value="main" style="text;html=1;strokeColor=none;fillColor=none;align=center;verticalAlign=middle;whiteSpace=wrap;rounded=0;sketch=1;hachureGap=4;jiggle=2;curveFitting=1;fontFamily=Architects Daughter;fontSource=https%3A%2F%2Ffonts.googleapis.com%2Fcss%3Ffamily%3DArchitects%2BDaughter;fontSize=22;" vertex="1" parent="1">
                    <mxGeometry x="-775" y="1920" width="60" height="30" as="geometry"/>
                </mxCell>
                <mxCell id="334" value="" style="shape=flexArrow;endArrow=classic;html=1;sketch=1;hachureGap=4;jiggle=2;curveFitting=1;fontFamily=Architects Daughter;fontSource=https%3A%2F%2Ffonts.googleapis.com%2Fcss%3Ffamily%3DArchitects%2BDaughter;fontSize=32;" edge="1" parent="1">
                    <mxGeometry width="50" height="50" relative="1" as="geometry">
                        <mxPoint x="-280" y="1945.7600000000002" as="sourcePoint"/>
                        <mxPoint x="-190" y="1945.7600000000002" as="targetPoint"/>
                    </mxGeometry>
                </mxCell>
                <mxCell id="335" value="cherry-pick B" style="text;html=1;align=center;verticalAlign=middle;resizable=0;points=[];autosize=1;strokeColor=none;fillColor=none;fontSize=22;fontFamily=Architects Daughter;sketch=1;hachureGap=4;jiggle=2;curveFitting=1;fontSource=https%3A%2F%2Ffonts.googleapis.com%2Fcss%3Ffamily%3DArchitects%2BDaughter;" vertex="1" parent="1">
                    <mxGeometry x="-320" y="1890" width="170" height="40" as="geometry"/>
                </mxCell>
                <mxCell id="336" value="A" style="rounded=0;whiteSpace=wrap;html=1;sketch=1;hachureGap=4;jiggle=2;curveFitting=1;fontFamily=Architects Daughter;fontSource=https%3A%2F%2Ffonts.googleapis.com%2Fcss%3Ffamily%3DArchitects%2BDaughter;fontSize=20;" vertex="1" parent="1">
                    <mxGeometry x="-25" y="1940" width="56" height="27.999" as="geometry"/>
                </mxCell>
                <mxCell id="337" value="B" style="whiteSpace=wrap;html=1;fontSize=20;fontFamily=Architects Daughter;rounded=0;sketch=1;hachureGap=4;jiggle=2;curveFitting=1;fontSource=https%3A%2F%2Ffonts.googleapis.com%2Fcss%3Ffamily%3DArchitects%2BDaughter;" vertex="1" parent="1">
                    <mxGeometry x="68.33333333333337" y="1940" width="56" height="27.999" as="geometry"/>
                </mxCell>
                <mxCell id="338" value="" style="edgeStyle=none;sketch=1;hachureGap=4;jiggle=2;curveFitting=1;html=1;fontFamily=Architects Daughter;fontSource=https%3A%2F%2Ffonts.googleapis.com%2Fcss%3Ffamily%3DArchitects%2BDaughter;fontSize=16;" edge="1" parent="1" source="336" target="337">
                    <mxGeometry relative="1" as="geometry"/>
                </mxCell>
                <mxCell id="339" value="C" style="whiteSpace=wrap;html=1;fontSize=20;fontFamily=Architects Daughter;rounded=0;sketch=1;hachureGap=4;jiggle=2;curveFitting=1;fontSource=https%3A%2F%2Ffonts.googleapis.com%2Fcss%3Ffamily%3DArchitects%2BDaughter;" vertex="1" parent="1">
                    <mxGeometry x="161.66666666666669" y="1940" width="56" height="27.999" as="geometry"/>
                </mxCell>
                <mxCell id="340" value="" style="edgeStyle=none;sketch=1;hachureGap=4;jiggle=2;curveFitting=1;html=1;fontFamily=Architects Daughter;fontSource=https%3A%2F%2Ffonts.googleapis.com%2Fcss%3Ffamily%3DArchitects%2BDaughter;fontSize=16;" edge="1" parent="1" source="337" target="339">
                    <mxGeometry relative="1" as="geometry"/>
                </mxCell>
                <mxCell id="345" value="" style="edgeStyle=none;sketch=1;hachureGap=4;jiggle=2;curveFitting=1;html=1;fontFamily=Architects Daughter;fontSource=https%3A%2F%2Ffonts.googleapis.com%2Fcss%3Ffamily%3DArchitects%2BDaughter;fontSize=22;" edge="1" parent="1" source="341" target="344">
                    <mxGeometry relative="1" as="geometry"/>
                </mxCell>
                <mxCell id="341" value="D" style="whiteSpace=wrap;html=1;fontSize=20;fontFamily=Architects Daughter;rounded=0;sketch=1;hachureGap=4;jiggle=2;curveFitting=1;fontSource=https%3A%2F%2Ffonts.googleapis.com%2Fcss%3Ffamily%3DArchitects%2BDaughter;" vertex="1" parent="1">
                    <mxGeometry x="255" y="1940" width="56" height="27.999" as="geometry"/>
                </mxCell>
                <mxCell id="342" value="" style="edgeStyle=none;sketch=1;hachureGap=4;jiggle=2;curveFitting=1;html=1;fontFamily=Architects Daughter;fontSource=https%3A%2F%2Ffonts.googleapis.com%2Fcss%3Ffamily%3DArchitects%2BDaughter;fontSize=16;" edge="1" parent="1" source="339" target="341">
                    <mxGeometry relative="1" as="geometry"/>
                </mxCell>
                <mxCell id="343" value="main" style="text;html=1;strokeColor=none;fillColor=none;align=center;verticalAlign=middle;whiteSpace=wrap;rounded=0;sketch=1;hachureGap=4;jiggle=2;curveFitting=1;fontFamily=Architects Daughter;fontSource=https%3A%2F%2Ffonts.googleapis.com%2Fcss%3Ffamily%3DArchitects%2BDaughter;fontSize=22;" vertex="1" parent="1">
                    <mxGeometry x="-125" y="1940" width="60" height="30" as="geometry"/>
                </mxCell>
                <mxCell id="344" value="B" style="whiteSpace=wrap;html=1;fontSize=20;fontFamily=Architects Daughter;rounded=0;sketch=1;hachureGap=4;jiggle=2;curveFitting=1;fontSource=https%3A%2F%2Ffonts.googleapis.com%2Fcss%3Ffamily%3DArchitects%2BDaughter;" vertex="1" parent="1">
                    <mxGeometry x="364.34" y="1940" width="56" height="27.999" as="geometry"/>
                </mxCell>
                <mxCell id="346" value="&lt;b&gt;Other tips&lt;/b&gt;" style="text;html=1;align=center;verticalAlign=middle;resizable=0;points=[];autosize=1;strokeColor=none;fillColor=none;fontSize=32;fontFamily=Architects Daughter;sketch=1;hachureGap=4;jiggle=2;curveFitting=1;fontSource=https%3A%2F%2Ffonts.googleapis.com%2Fcss%3Ffamily%3DArchitects%2BDaughter;" vertex="1" parent="1">
                    <mxGeometry x="-805" y="2000" width="170" height="50" as="geometry"/>
                </mxCell>
                <mxCell id="347" value="reset (undo stage)" style="text;html=1;align=center;verticalAlign=middle;resizable=0;points=[];autosize=1;strokeColor=none;fillColor=none;fontSize=22;fontFamily=Architects Daughter;sketch=1;hachureGap=4;jiggle=2;curveFitting=1;fontSource=https%3A%2F%2Ffonts.googleapis.com%2Fcss%3Ffamily%3DArchitects%2BDaughter;" vertex="1" parent="1">
                    <mxGeometry x="-756.6700000000001" y="2080" width="210" height="40" as="geometry"/>
                </mxCell>
                <mxCell id="348" value="add (stage)" style="text;html=1;align=center;verticalAlign=middle;resizable=0;points=[];autosize=1;strokeColor=none;fillColor=none;fontSize=22;fontFamily=Architects Daughter;sketch=1;hachureGap=4;jiggle=2;curveFitting=1;fontSource=https%3A%2F%2Ffonts.googleapis.com%2Fcss%3Ffamily%3DArchitects%2BDaughter;" vertex="1" parent="1">
                    <mxGeometry x="-490.00000000000006" y="2080" width="130" height="40" as="geometry"/>
                </mxCell>
                <mxCell id="349" value="update-ref (undo last commit, roll back to previous commit)" style="text;html=1;align=center;verticalAlign=middle;resizable=0;points=[];autosize=1;strokeColor=none;fillColor=none;fontSize=22;fontFamily=Architects Daughter;sketch=1;hachureGap=4;jiggle=2;curveFitting=1;fontSource=https%3A%2F%2Ffonts.googleapis.com%2Fcss%3Ffamily%3DArchitects%2BDaughter;" vertex="1" parent="1">
                    <mxGeometry x="-295.00000000000006" y="2080" width="640" height="40" as="geometry"/>
                </mxCell>
                <mxCell id="350" value="stash(stash changes)" style="text;html=1;align=center;verticalAlign=middle;resizable=0;points=[];autosize=1;strokeColor=none;fillColor=none;fontSize=22;fontFamily=Architects Daughter;sketch=1;hachureGap=4;jiggle=2;curveFitting=1;fontSource=https%3A%2F%2Ffonts.googleapis.com%2Fcss%3Ffamily%3DArchitects%2BDaughter;" vertex="1" parent="1">
                    <mxGeometry x="-770.0000000000001" y="2140" width="230" height="40" as="geometry"/>
                </mxCell>
                <mxCell id="351" value="clean(discard changes)" style="text;html=1;align=center;verticalAlign=middle;resizable=0;points=[];autosize=1;strokeColor=none;fillColor=none;fontSize=22;fontFamily=Architects Daughter;sketch=1;hachureGap=4;jiggle=2;curveFitting=1;fontSource=https%3A%2F%2Ffonts.googleapis.com%2Fcss%3Ffamily%3DArchitects%2BDaughter;" vertex="1" parent="1">
                    <mxGeometry x="-500.0000000000001" y="2140" width="250" height="40" as="geometry"/>
                </mxCell>
                <mxCell id="352" value="reflog(show operated ref HEAD log)" style="text;html=1;align=center;verticalAlign=middle;resizable=0;points=[];autosize=1;strokeColor=none;fillColor=none;fontSize=22;fontFamily=Architects Daughter;sketch=1;hachureGap=4;jiggle=2;curveFitting=1;fontSource=https%3A%2F%2Ffonts.googleapis.com%2Fcss%3Ffamily%3DArchitects%2BDaughter;" vertex="1" parent="1">
                    <mxGeometry x="-222.0000000000001" y="2140" width="400" height="40" as="geometry"/>
                </mxCell>
                <mxCell id="353" value="status(show git status)" style="text;html=1;align=center;verticalAlign=middle;resizable=0;points=[];autosize=1;strokeColor=none;fillColor=none;fontSize=22;fontFamily=Architects Daughter;sketch=1;hachureGap=4;jiggle=2;curveFitting=1;fontSource=https%3A%2F%2Ffonts.googleapis.com%2Fcss%3Ffamily%3DArchitects%2BDaughter;" vertex="1" parent="1">
                    <mxGeometry x="229.9999999999999" y="2140" width="260" height="40" as="geometry"/>
                </mxCell>
                <mxCell id="354" value="颜色" style="text;html=1;align=center;verticalAlign=middle;resizable=0;points=[];autosize=1;strokeColor=none;fillColor=none;fontSize=22;fontFamily=Architects Daughter;sketch=1;hachureGap=4;jiggle=2;curveFitting=1;fontSource=https%3A%2F%2Ffonts.googleapis.com%2Fcss%3Ffamily%3DArchitects%2BDaughter;" vertex="1" parent="1">
                    <mxGeometry x="-760.0000000000001" y="2270" width="70" height="40" as="geometry"/>
                </mxCell>
                <mxCell id="355" value="" style="shape=curlyBracket;whiteSpace=wrap;html=1;rounded=1;labelPosition=left;verticalLabelPosition=middle;align=right;verticalAlign=middle;dashed=1;sketch=1;hachureGap=4;jiggle=2;curveFitting=1;fontFamily=Architects Daughter;fontSource=https%3A%2F%2Ffonts.googleapis.com%2Fcss%3Ffamily%3DArchitects%2BDaughter;fontSize=22;" vertex="1" parent="1">
                    <mxGeometry x="-150" y="1620" width="20" height="120" as="geometry"/>
                </mxCell>
                <mxCell id="356" value="" style="shape=curlyBracket;whiteSpace=wrap;html=1;rounded=1;labelPosition=left;verticalLabelPosition=middle;align=right;verticalAlign=middle;sketch=1;hachureGap=4;jiggle=2;curveFitting=1;fontFamily=Architects Daughter;fontSource=https%3A%2F%2Ffonts.googleapis.com%2Fcss%3Ffamily%3DArchitects%2BDaughter;fontSize=22;" vertex="1" parent="1">
                    <mxGeometry x="-680" y="2230" width="20" height="120" as="geometry"/>
                </mxCell>
                <mxCell id="358" value="蓝色（改）" style="text;html=1;align=center;verticalAlign=middle;resizable=0;points=[];autosize=1;strokeColor=none;fillColor=none;fontSize=22;fontFamily=Architects Daughter;sketch=1;hachureGap=4;jiggle=2;curveFitting=1;fontSource=https%3A%2F%2Ffonts.googleapis.com%2Fcss%3Ffamily%3DArchitects%2BDaughter;" vertex="1" parent="1">
                    <mxGeometry x="-655.67" y="2220" width="130" height="40" as="geometry"/>
                </mxCell>
                <mxCell id="359" value="红色（删）" style="text;html=1;align=center;verticalAlign=middle;resizable=0;points=[];autosize=1;strokeColor=none;fillColor=none;fontSize=22;fontFamily=Architects Daughter;sketch=1;hachureGap=4;jiggle=2;curveFitting=1;fontSource=https%3A%2F%2Ffonts.googleapis.com%2Fcss%3Ffamily%3DArchitects%2BDaughter;" vertex="1" parent="1">
                    <mxGeometry x="-650.67" y="2320" width="130" height="40" as="geometry"/>
                </mxCell>
                <mxCell id="360" value="绿色（增）" style="text;html=1;align=center;verticalAlign=middle;resizable=0;points=[];autosize=1;strokeColor=none;fillColor=none;fontSize=22;fontFamily=Architects Daughter;sketch=1;hachureGap=4;jiggle=2;curveFitting=1;fontSource=https%3A%2F%2Ffonts.googleapis.com%2Fcss%3Ffamily%3DArchitects%2BDaughter;" vertex="1" parent="1">
                    <mxGeometry x="-655.67" y="2270" width="130" height="40" as="geometry"/>
                </mxCell>
                <mxCell id="361" value="branch" style="text;html=1;align=center;verticalAlign=middle;resizable=0;points=[];autosize=1;strokeColor=none;fillColor=none;fontSize=22;fontFamily=Architects Daughter;sketch=1;hachureGap=4;jiggle=2;curveFitting=1;fontSource=https%3A%2F%2Ffonts.googleapis.com%2Fcss%3Ffamily%3DArchitects%2BDaughter;" vertex="1" parent="1">
                    <mxGeometry x="-509.6600000000001" y="2270" width="100" height="40" as="geometry"/>
                </mxCell>
                <mxCell id="362" value="" style="shape=curlyBracket;whiteSpace=wrap;html=1;rounded=1;labelPosition=left;verticalLabelPosition=middle;align=right;verticalAlign=middle;sketch=1;hachureGap=4;jiggle=2;curveFitting=1;fontFamily=Architects Daughter;fontSource=https%3A%2F%2Ffonts.googleapis.com%2Fcss%3Ffamily%3DArchitects%2BDaughter;fontSize=22;" vertex="1" parent="1">
                    <mxGeometry x="-414.65999999999997" y="2230" width="20" height="120" as="geometry"/>
                </mxCell>
                <mxCell id="363" value="-b&amp;nbsp; &amp;nbsp;增" style="text;html=1;align=center;verticalAlign=middle;resizable=0;points=[];autosize=1;strokeColor=none;fillColor=none;fontSize=22;fontFamily=Architects Daughter;sketch=1;hachureGap=4;jiggle=2;curveFitting=1;fontSource=https%3A%2F%2Ffonts.googleapis.com%2Fcss%3Ffamily%3DArchitects%2BDaughter;" vertex="1" parent="1">
                    <mxGeometry x="-370.3299999999999" y="2210" width="90" height="40" as="geometry"/>
                </mxCell>
                <mxCell id="365" value="-d&amp;nbsp; &amp;nbsp;删" style="text;html=1;align=center;verticalAlign=middle;resizable=0;points=[];autosize=1;strokeColor=none;fillColor=none;fontSize=22;fontFamily=Architects Daughter;sketch=1;hachureGap=4;jiggle=2;curveFitting=1;fontSource=https%3A%2F%2Ffonts.googleapis.com%2Fcss%3Ffamily%3DArchitects%2BDaughter;" vertex="1" parent="1">
                    <mxGeometry x="-370.3299999999999" y="2250" width="90" height="40" as="geometry"/>
                </mxCell>
                <mxCell id="366" value="-m&amp;nbsp; &amp;nbsp;改" style="text;html=1;align=center;verticalAlign=middle;resizable=0;points=[];autosize=1;strokeColor=none;fillColor=none;fontSize=22;fontFamily=Architects Daughter;sketch=1;hachureGap=4;jiggle=2;curveFitting=1;fontSource=https%3A%2F%2Ffonts.googleapis.com%2Fcss%3Ffamily%3DArchitects%2BDaughter;" vertex="1" parent="1">
                    <mxGeometry x="-375.3299999999999" y="2290" width="100" height="40" as="geometry"/>
                </mxCell>
                <mxCell id="367" value="switch&amp;nbsp; 切换" style="text;html=1;align=center;verticalAlign=middle;resizable=0;points=[];autosize=1;strokeColor=none;fillColor=none;fontSize=22;fontFamily=Architects Daughter;sketch=1;hachureGap=4;jiggle=2;curveFitting=1;fontSource=https%3A%2F%2Ffonts.googleapis.com%2Fcss%3Ffamily%3DArchitects%2BDaughter;" vertex="1" parent="1">
                    <mxGeometry x="-379.99999999999994" y="2330" width="150" height="40" as="geometry"/>
                </mxCell>
            </root>
        </mxGraphModel>
    </diagram>
</mxfile>